<svg width="554" height="800" viewBox="0 0 554 800" fill="none" xmlns="http://www.w3.org/2000/svg">
<path d="M550.867 213.834L546.467 191.634C542.5 171.701 533.533 152.867 513.1 145.667C506.533 143.367 499.1 142.401 494.1 137.634C489.033 132.867 487.567 125.434 486.4 118.567C484.233 105.967 482.233 93.3673 480 80.8007C478.1 69.9673 476.6 57.8007 471.667 47.9007C465.167 34.5673 451.767 26.7673 438.467 21.634C431.64 19.0816 424.673 16.9225 417.6 15.1673C384.267 6.40065 349.267 3.16732 315.033 1.30065C273.926 -0.959556 232.709 -0.268896 191.7 3.36732C161.2 6.13398 129.033 9.50065 100.033 20.034C89.4333 23.9007 78.5 28.5673 70.4333 36.734C60.5333 46.8007 57.3333 62.4006 64.5333 74.934C69.6666 83.834 78.3666 90.134 87.6 94.2673C99.6 99.6673 112.167 103.734 125.033 106.467C160.867 114.401 198 117.501 234.6 118.801C275.2 120.467 315.833 119.134 356.267 114.867C366.233 113.767 376.2 112.434 386.133 110.901C397.867 109.101 405.4 93.8007 401.933 83.1007C397.8 70.334 386.7 65.4007 374.133 67.334C358.6 69.8007 342.133 70.934 328.067 72.2007C288.833 74.8673 249.467 74.934 210.2 72.4007C197.316 71.548 184.456 70.3587 171.633 68.834C168.767 68.5007 165.633 68.0007 163.033 67.634C154.933 66.434 146.9 64.9673 138.9 63.3007C135.2 62.4007 135.2 57.134 138.9 56.234H139.067C148.3 54.234 157.633 52.634 167 51.334H167.067C171.433 51.034 175.833 50.2673 180.2 49.734C218.131 45.7972 256.287 44.4607 294.4 45.734C316.867 46.3673 339.3 47.9673 361.633 50.534L369.233 51.5673C378.133 52.9007 387 54.5007 395.833 56.4007C408.9 59.234 425.667 60.1673 431.5 74.4673C433.333 79.034 434.167 84.0673 435.2 88.834L445.833 138.301C446.059 139.361 446.064 140.457 445.847 141.52C445.631 142.582 445.198 143.589 444.576 144.477C443.954 145.365 443.155 146.115 442.23 146.681C441.305 147.248 440.274 147.617 439.2 147.767H439.1C437.867 147.967 436.6 148.101 435.367 148.267C382.934 154.957 330.124 158.242 277.267 158.101C224.894 158.047 172.577 154.662 120.633 147.967C115.967 147.401 110.867 146.567 106.733 145.967C95.8666 144.367 85.1 142.367 74.3 140.601C61.2 138.434 48.7 139.534 36.8666 145.967C27.2 151.301 19.3 159.434 14.3666 169.334C9.23329 179.867 7.73329 191.334 5.46663 202.667C3.16663 214.001 -0.400039 226.234 0.966628 237.867C3.86663 262.967 21.4 283.367 46.6333 287.934C171.416 310.203 298.75 314.424 424.733 300.467C427.127 300.195 429.551 300.463 431.827 301.252C434.103 302.041 436.173 303.331 437.884 305.026C439.596 306.722 440.905 308.78 441.715 311.048C442.526 313.317 442.816 315.738 442.567 318.134L440.2 341.367L406.267 671.601C404.9 685.267 404.7 699.334 402.1 712.834C398.033 734.067 383.667 747.101 362.7 751.867C343.467 756.234 323.867 758.534 304.167 758.701C282.3 758.834 260.5 757.867 238.633 757.967C215.333 758.101 186.767 755.967 168.8 738.634C152.967 723.367 150.8 699.501 148.633 678.867L124.267 445.101L113.533 341.967C112.3 330.267 104 318.801 90.9333 319.367C79.7333 319.867 67 329.367 68.3333 342.001L75.9333 414.834L107.567 718.567C112.467 763.367 146.7 787.501 189.1 794.301C213.833 798.301 239.2 799.101 264.333 799.501C296.533 800.034 329.067 801.267 360.733 795.434C407.667 786.834 442.9 755.501 447.933 706.867C459.267 595.801 470.7 484.767 482.067 373.701L489.233 304.134C489.586 300.684 491.042 297.44 493.383 294.882C495.725 292.325 498.828 290.589 502.233 289.934C515.633 287.334 528.467 282.867 538.033 272.667C553.2 256.401 556.233 235.234 550.867 213.834ZM501.6 239.567C496.767 244.134 489.5 246.267 482.333 247.334C401.8 259.301 320.133 265.334 238.733 262.667C180.467 260.667 122.833 254.201 65.1666 246.067C59.5 245.267 53.4 244.234 49.5 240.067C42.1666 232.201 45.8 216.401 47.7 206.901C49.4333 198.234 52.7666 186.601 63.1333 185.367C79.2666 183.467 98 190.301 114 192.701C133.233 195.634 152.533 198.001 171.9 199.767C254.567 207.301 338.633 206.101 420.967 195.101C435.967 193.101 450.933 190.767 465.8 188.101C479.1 185.701 493.8 181.234 501.8 194.967C507.333 204.334 508.067 216.867 507.2 227.434C506.937 232.049 504.922 236.389 501.567 239.567H501.6ZM296.3 369.567C267.567 381.901 234.967 395.834 192.667 395.834C174.987 395.791 157.394 393.358 140.367 388.601L169.6 688.734C171.767 714.734 193.5 734.734 219.6 734.734C219.6 734.734 261.033 736.901 274.867 736.901C289.767 736.901 334.4 734.734 334.4 734.734C360.5 734.734 382.2 714.734 384.367 688.734L415.7 357.067C401.564 351.955 386.665 349.273 371.633 349.134C344.1 349.134 321.933 358.601 296.3 369.567Z" fill="#0D0C22"/>
<path d="M296.451 366.767C267.498 379.194 234.65 393.234 192.028 393.234C174.213 393.19 156.487 390.739 139.329 385.945L168.785 688.366C170.968 714.564 192.867 734.716 219.166 734.716C219.166 734.716 260.915 736.899 274.854 736.899C289.868 736.899 334.841 734.716 334.841 734.716C361.14 734.716 383.005 714.564 385.189 688.366L416.761 354.172C402.517 349.021 387.504 346.318 372.358 346.178C344.615 346.178 322.279 355.717 296.451 366.767Z" fill="white"/>
</svg>
