<?xml version="1.0" encoding="UTF-8" standalone="no"?>
<!DOCTYPE svg PUBLIC "-//W3C//DTD SVG 1.1//EN" "http://www.w3.org/Graphics/SVG/1.1/DTD/svg11.dtd">
<svg width="100%" height="100%" viewBox="0 0 837 642" version="1.1" xmlns="http://www.w3.org/2000/svg" xmlns:xlink="http://www.w3.org/1999/xlink" xml:space="preserve" xmlns:serif="http://www.serif.com/" style="fill-rule:evenodd;clip-rule:evenodd;stroke-linecap:round;stroke-linejoin:round;stroke-miterlimit:1.5;">
    <g transform="matrix(1,0,0,1,-46.4307,-171.325)">
        <g id="Eating-Cooper" serif:id="Eating Cooper">
            <g transform="matrix(1,0,0,1,-10.5716,-26.0786)">
                <path d="M276.77,460.922C276.77,460.922 129.179,512.739 129.741,531.202C130.302,549.665 146.459,550.668 133.213,563.311C119.968,575.954 48.393,615.22 57.862,644.53C67.332,673.84 92.825,685.462 106.628,706.534C120.431,727.606 97.676,728.208 104.376,744.463C111.077,760.718 211.425,798.426 281.46,804.464C351.495,810.501 358.373,830.967 411.639,836.206C464.905,841.444 500.024,839.471 533.167,823.294C566.311,807.117 611.811,808.698 651.859,809.127C691.907,809.556 702.897,794.409 732.292,786.321C761.687,778.232 798.092,771.919 829.266,752.388C860.44,732.857 873.641,712.126 867.62,692.595C861.6,673.064 859.824,670.894 871.267,657.873C882.709,644.853 894.73,624.363 893.927,608.975C893.124,593.587 846.607,563.651 834.766,554.182C822.926,544.712 818.324,545.532 821.678,537.246C825.032,528.96 835.858,519.885 834.453,509.824C833.049,499.763 792.511,475.497 792.511,475.497C792.511,475.497 758.575,448.578 609.869,441.49C461.163,434.401 477.469,420.527 276.77,460.922Z" style="fill:rgb(155,166,86);"/>
            </g>
            <g id="Base-Brown" serif:id="Base Brown" transform="matrix(1,0,0,1,0.298977,1.44227)">
                <path d="M292.757,177.528C292.757,177.528 268.628,197.485 273.254,261.045C276.105,300.207 287.194,307.906 287.194,307.906C287.194,307.906 279.59,327.166 271.684,340.497C263.779,353.828 263.095,362.886 251.779,369.552C240.463,376.217 230.193,373.378 236.112,392.032C242.032,410.686 249.527,415.745 249.527,415.745C249.527,415.745 235.815,418.822 237.468,424.014C239.121,429.206 249.107,453.006 275.002,472.072C300.897,491.138 325.888,503.819 325.888,503.819C325.888,503.819 300.25,517.499 296.065,533.93C291.88,550.361 294.809,557.266 294.809,557.266C294.809,557.266 288.309,563.001 287.214,575.712C286.118,588.423 296.182,609.599 302.887,616.275C309.592,622.951 326.075,641.693 336.132,640.017C346.189,638.34 355.94,632.979 361.578,628.103C367.217,623.227 372.957,619.235 372.957,619.235C372.957,619.235 399.392,643.59 417.68,647.465C435.969,651.34 452.785,653.033 452.785,653.033C452.785,653.033 455.613,670.846 468.261,682.317C480.908,693.787 479.212,706.23 520.353,692.366C561.494,678.502 585.929,665.479 601.777,649.936C617.625,634.392 636.332,606.728 639.074,599.719C641.817,592.709 643.305,580.879 643.305,580.879C643.305,580.879 693.928,575.265 740.1,539.302C786.273,503.34 791.09,484.015 797.795,468.774C804.499,453.533 823.605,425.611 808.414,372.119C793.223,318.627 728.888,346.59 718.192,348.45C707.496,350.31 672.918,393.563 668.423,401.314C663.928,409.065 642.499,459.443 633.819,471.689C625.138,483.935 618.008,478.68 618.008,478.68L645.714,449.591L635.496,436.28C635.496,436.28 661.29,414.016 659.26,403.008C657.229,391.999 617.31,327.474 614.365,321.226C611.42,314.979 626.955,294.289 626.866,251.586C626.796,218.674 620.517,180.719 599.363,180.607C544.57,180.317 517.417,217.392 509.772,224.696C502.126,232 472.786,212.955 462.09,213.59C451.394,214.226 443.615,216.01 446.815,219.11C450.015,222.21 443.879,226.678 443.879,226.678C443.879,226.678 421.803,204.557 414.052,202.729C406.302,200.9 394.043,201.833 396.176,215.784C398.309,229.735 383.361,225.067 383.361,225.067C383.361,225.067 343.236,183.344 330.68,177.553C318.124,171.763 311.658,169.777 292.757,177.528Z" style="fill:rgb(0,0,255);"/>
            </g>
            <g id="Light-Tan" serif:id="Light Tan">
                <path d="M372.463,401.253C372.463,401.253 392.253,339.613 365.102,323.664C337.952,307.714 308.084,312.661 286.299,342.646C264.513,372.631 249.778,379.947 247.295,381.933C244.812,383.92 257.829,419.845 257.829,419.845L248.061,427.461C248.061,427.461 262.574,466.902 278.198,477.332C293.821,487.762 338.423,503.329 338.423,503.329L354.535,488.519L370.484,487.546L387.573,489.381L413.45,490.051L431.19,493.868L432.003,507.112L417.103,513.097L417.098,520.547C417.098,520.547 498.668,530.478 524.545,520.062C550.422,509.646 625.904,460.821 625.904,460.821L627.195,440.478L655.193,402.557C655.193,402.557 638.329,410.552 624.899,409.272C611.47,407.993 604.682,410.734 568.757,370.701C532.832,330.667 511.84,319.404 487.262,320.583C462.684,321.761 439.153,342.924 433.852,365.468C428.552,388.011 427.39,413.341 427.39,413.341C427.39,413.341 449.036,365.644 481.005,364.25C512.973,362.855 523.395,376.936 535.758,389.021C548.121,401.107 574.981,423.953 574.981,423.953C574.981,423.953 583.062,429.007 582.731,435.629C582.4,442.251 565.435,464.41 546.727,473.361C528.019,482.312 512.292,488.401 493.749,485.798C475.207,483.194 460.307,474.242 454.513,466.105C448.719,457.968 446.825,447.54 433.746,438.101C420.667,428.662 404.277,426.389 395.503,425.738C386.728,425.087 364.047,424.593 352.127,433.698C340.208,442.804 342.088,453.371 335.898,457.21C329.707,461.049 310.714,458.489 292.999,444.819C275.285,431.148 265.181,409.522 265.181,409.522C265.181,409.522 259.358,401.536 265.61,392.464C271.862,383.392 306.19,355.885 306.19,355.885C306.19,355.885 319.561,348.831 333.395,352.638C347.228,356.446 357.467,362.075 362.35,371.181C367.232,380.286 373.793,401.359 372.463,401.253Z" style="fill:rgb(0,255,0);"/>
            </g>
            <g id="Darks">
                <path d="M428.295,411.261L424.554,433.225C424.554,433.225 434.328,436.8 439.607,444.05C444.886,451.299 455.651,469.113 464.236,475.649C472.82,482.186 484.341,486.812 505.195,486.295C526.048,485.778 542.631,477.107 554.16,470.508C565.689,463.91 573.644,455.245 579.099,448.822C584.553,442.399 584.37,443.636 584.807,436.421C585.244,429.207 573.199,422.297 567.292,416.578C561.385,410.859 537.131,385.98 531.671,381.053C526.212,376.126 517.001,363.446 494,362.566C470.998,361.686 458.098,371.347 450.182,377.165C442.493,382.817 436.825,391.385 433.066,398.366C429.307,405.347 428.295,411.261 428.295,411.261Z" style="fill:rgb(255,0,0);"/>
                <path d="M307.677,530.046C300.547,540.699 300.442,546.197 300.946,551.953C301.449,557.709 295.78,568.361 295.78,568.361C295.78,568.361 294.162,580.388 296.527,589.667C298.891,598.945 310.599,618.064 315.835,623.391C321.071,628.717 335.226,634.716 335.226,634.716C335.226,634.716 342.915,631.384 349.334,628.513C355.752,625.642 367.076,615.17 367.076,615.17L350.746,572.173C350.746,572.173 344.389,573.45 339.578,571.423C334.767,569.397 328.164,562.049 328.754,557.911C329.343,553.773 334.664,546.088 334.664,546.088L338.257,536.325L334.795,514.977L324.744,512.444C324.744,512.444 314.807,519.394 307.677,530.046Z" style="fill:rgb(255,0,0);"/>
                <path d="M400.74,532.216L380.579,541.852L378.997,551.035L381.405,556.832L391.369,584.214L416.576,601.311C416.576,601.311 447.043,601.408 452.87,586.287C458.698,571.166 456.535,552.029 456.535,552.029C456.535,552.029 427.83,534.825 418.123,532.883C408.415,530.94 400.74,532.216 400.74,532.216Z" style="fill:rgb(255,0,0);"/>
                <path d="M458.896,623.174C458.896,623.174 452.407,655.542 467.524,673.583C482.641,691.623 493.706,696.498 500.8,695.063C507.894,693.627 530.911,685.097 530.911,685.097C530.911,685.097 541.098,664.918 534.474,649.632C527.851,634.346 521.514,627.393 506.824,621.566C492.133,615.739 467.968,616.745 467.968,616.745L458.896,623.174Z" style="fill:rgb(255,0,0);"/>
                <path d="M641.806,478.181C641.806,478.181 671.093,481.607 680.235,494.49C689.378,507.373 694.62,503.064 697.164,518.234C699.708,533.404 698.773,554.276 698.773,554.276L746.414,523.533C746.414,523.533 742.048,465.858 729.241,455.967C716.434,446.075 660.53,433.767 660.53,433.767L641.806,478.181Z" style="fill:rgb(255,0,0);"/>
                <path d="M697.426,374.263C697.426,374.263 760.478,331.295 783.044,357.107C805.611,382.92 806.256,424.026 803.74,436.375C801.225,448.725 791.772,452.926 791.772,452.926C791.772,452.926 784.234,415.353 763.576,400.657C742.917,385.961 689.622,384.332 689.622,384.332L697.426,374.263Z" style="fill:rgb(255,0,0);"/>
                <path d="M372.153,423.915C372.153,423.915 376.435,398.962 370.267,384.723C364.099,370.485 363.155,363.891 347.419,356.669C331.683,349.448 313.72,351.05 304.739,354.844C295.758,358.638 277.758,379.472 272.376,384.115C266.994,388.758 263.451,393.609 263.451,393.609C263.451,393.609 261.449,399.5 263.529,405.46C265.608,411.42 274.532,427.391 280.076,432.519C285.62,437.647 295.675,447.286 301.024,450.197C306.373,453.107 316.141,458.924 324.248,458.791C332.356,458.659 340.873,454.026 343.393,448.099C345.914,442.172 350.895,435.67 355.801,433.15C360.706,430.629 369.431,426.678 370.589,425.928C371.747,425.179 372.153,423.915 372.153,423.915Z" style="fill:rgb(255,0,0);"/>
            </g>
            <g id="Shadow">
                <path d="M536.627,267.934C536.627,267.934 555.822,266.659 557.693,274.006C559.563,281.353 560.034,288.38 560.034,288.38L580.602,305.469C580.602,305.469 594.134,283.692 592.215,261.868C590.296,240.044 582.31,228.266 582.31,228.266C582.31,228.266 561.069,235.294 553.243,244.717C545.417,254.14 536.627,267.934 536.627,267.934Z" style="fill-opacity:0.25;"/>
                <path d="M307.409,226.198L305.138,260.536L308.592,277.625L338.789,255.174L323.137,229.696L313.159,221.242L307.409,226.198Z" style="fill-opacity:0.25;"/>
                <path d="M490.566,527.879L483.858,538.58C483.858,538.58 525.088,542.989 543.771,535.61C562.454,528.231 590.006,511.651 599.897,503.958C609.789,496.264 611.624,485.902 611.624,485.902L602.84,481.192L563.231,505.787L531.289,518.405L490.566,527.879Z" style="fill-opacity:0.25;"/>
                <path d="M353.219,568.178L366.067,603.317L393.385,586.046L383.223,560.124L353.219,568.178Z" style="fill-opacity:0.12;"/>
                <path d="M441.429,529.693L451.943,550.295L479.25,533.967L441.429,529.693Z" style="fill-opacity:0.25;"/>
                <path d="M446.927,610.046L438.132,645.502L450.692,647.578L460.575,610.674L446.927,610.046Z" style="fill-opacity:0.12;"/>
                <path d="M479.779,686.053L488.208,695.344C488.208,695.344 578.428,669.053 595.385,652.567C612.341,636.082 631.653,611.191 635.892,595.805C640.131,580.419 646.086,572.449 646.086,572.449C646.086,572.449 698.972,559.726 715.144,551.405C731.315,543.084 765.461,515.051 772.997,505.159C780.533,495.268 807.416,440.173 807.256,431.538C807.097,422.903 800.868,417.256 800.868,417.256C800.868,417.256 770.737,471.087 744.544,499.356C718.351,527.625 671.045,546.181 665.614,546.66C660.184,547.139 660.647,537.288 655.696,531.479C650.745,525.67 640.364,528.705 640.364,528.705C640.364,528.705 642.257,549.537 637.779,558.411C621.236,591.191 609.663,617.738 579.818,639.542C526.849,678.238 479.779,686.053 479.779,686.053Z" style="fill-opacity:0.12;"/>
                <path d="M305.347,609.675C305.347,609.675 281.558,628.229 300.555,642.603C319.553,656.977 331.491,662.196 349.546,658.428C367.602,654.66 373.722,652.792 373.722,652.792C373.722,652.792 384.463,662.708 403.934,668.457C423.406,674.207 447.056,678.419 447.056,678.419C447.056,678.419 458.204,698.737 472.491,704.173C486.779,709.609 554.19,702.652 575.229,696.686C596.267,690.719 625.497,678.159 639.313,667.326C653.13,656.492 662.079,626.491 666.318,618.484C670.557,610.477 676.063,603.883 690.194,599.643C704.324,595.404 741.577,577.866 754.295,571.9C767.012,565.934 788.251,552.114 790.92,536.414C793.589,520.714 771.868,511.607 771.868,511.607L724.117,553.084L683.743,566.702L643.975,579.32L625.608,618.768L602.131,648.954L579.452,662.369L550.544,678.181L526.268,688.722L508.54,693.513L485.062,693.556L468.612,679.897L456.314,659.957L453.12,653.677L417.345,649.752L390.833,636.25L373.424,621.648L360.328,628.037L339.565,637.308L325.032,635.281L305.347,609.675Z" style="fill-opacity:0.25;"/>
            </g>
            <g id="Food" transform="matrix(1,0,0,1,164.732,43.73)">
                <g transform="matrix(1,0,0,1,-165.835,-42.4651)">
                    <path d="M350.661,487.671C350.661,487.671 347.798,502.61 343.3,506.222C338.802,509.835 335.935,515.437 335.935,515.437C335.935,515.437 337.011,523.684 336.666,532.203C336.321,540.723 339.828,543.758 334.989,549.824C330.15,555.89 329.605,558.48 329.605,558.48L340.93,567.749L359.191,562.772L375.297,560.781L379.587,548.21L383.94,540.472L401.33,531.75L414.298,526.398L419.519,512.523L433.362,509.776L433.531,494.5L410.427,491.552L392.462,491.155L380.398,485.996L365.132,487.564L350.661,487.671Z" style="fill:rgb(232,162,42);"/>
                </g>
                <g transform="matrix(1,0,0,1,-164.867,-46.1882)">
                    <path d="M351.335,529.207C351.483,528.817 351.652,528.41 351.846,527.986C352.533,526.482 353.918,525.415 355.548,525.135C357.177,524.856 358.839,525.399 359.988,526.588C361.271,527.914 362.013,529.045 362.429,529.982L362.942,531.624L363.018,533.539L362.626,535.186L362.263,535.836L362.493,537.229L362.399,538.627L361.943,539.998L361.219,541.08L360.286,541.92L359.105,542.542L357.662,542.878L356.169,542.858L354.523,542.46L352.763,541.527L352.652,541.424C351.062,540.806 349.894,539.418 349.56,537.739C349.101,535.432 348.833,533.072 349.784,531.182L350.682,529.826L351.335,529.207Z" style="fill:rgb(239,181,51);"/>
                </g>
                <g transform="matrix(1,0,0,1,-164.867,-46.1882)">
                    <path d="M355.107,504.231C355.024,503.166 355.28,502.067 355.91,501.105C357.319,498.955 360.108,498.248 362.349,499.384C362.93,499.468 366.496,499.99 368.787,500.531C371.376,501.142 373.815,502.167 375.568,503.687C376.285,504.31 376.806,504.854 377.175,505.307L378.159,506.848L378.656,508.464L378.684,509.952L378.412,511.128L377.875,512.23L377.014,513.271L375.694,514.197L373.944,514.778L372.136,514.911C370.564,514.883 367.469,514.297 365.715,513.94C365.54,514.026 365.369,514.104 365.205,514.173L363.117,514.733L361.11,514.676L359.193,514.009L357.852,513.063L356.576,511.551C355.861,510.443 355.374,508.905 354.974,507.661C354.605,506.516 354.668,505.303 355.107,504.231Z" style="fill:rgb(239,181,51);"/>
                </g>
                <g transform="matrix(1,0,0,1,-164.867,-46.1882)">
                    <path d="M388.858,492.521L389.731,492.738L390.814,493.283L391.682,494.005C391.842,494.17 392.3,494.829 392.565,495.218C396.658,497.689 396.816,497.753 399.614,501.974C400.744,503.679 400.722,505.899 399.559,507.581C398.395,509.263 396.325,510.067 394.332,509.611C387.573,508.065 383.725,505.592 382.032,502.394C381.099,500.632 380.66,498.565 380.904,496.054C381.172,493.308 383.619,491.295 386.365,491.562C387.302,491.653 388.153,491.998 388.858,492.521Z" style="fill:rgb(239,181,51);"/>
                </g>
                <g transform="matrix(1,0,0,1,-164.867,-46.1882)">
                    <path d="M391.577,522.172C392.326,523.011 392.797,524.106 392.841,525.316C392.942,528.073 390.784,530.394 388.026,530.494C380.563,530.766 376.682,530.237 374.743,529.643L372.539,528.661L371.036,527.364L370.126,525.899L369.681,524.102L369.885,522.099L370.888,520.124L372.068,518.909L373.661,517.956L375.723,517.461L378.118,517.668C378.904,517.854 379.816,518.204 380.873,518.611C382.156,519.104 383.867,519.744 386.261,519.361C388.512,519.001 390.654,520.206 391.577,522.172Z" style="fill:rgb(239,181,51);"/>
                </g>
                <g transform="matrix(1,0,0,1,-164.867,-46.1882)">
                    <path d="M367.558,543.494C367.58,543.374 367.604,543.256 367.63,543.139C367.764,542.545 367.942,541.982 368.164,541.455L369.133,539.722L370.085,538.631L371.273,537.695L372.988,536.86L374.799,536.435C375.812,536.304 377.002,536.315 378.39,536.563C381.107,537.048 382.918,539.648 382.432,542.365C382.42,542.434 382.406,542.503 382.391,542.571C382.668,543.857 382.433,545.235 381.67,546.385C379.679,549.389 379.582,549.583 378.278,552.2C378.319,552.433 378.352,552.644 378.375,552.828C378.581,554.476 377.955,556.117 376.706,557.21C375.457,558.303 373.747,558.705 372.141,558.283C368.579,557.345 366.608,555.977 365.557,554.797L364.716,553.647L364.092,552.26L363.795,550.743L363.843,549.268L364.209,547.827L365.07,546.141C365.661,545.249 366.515,544.338 367.558,543.494Z" style="fill:rgb(239,181,51);"/>
                </g>
                <g transform="matrix(1,0,0,1,-164.867,-46.1882)">
                    <path d="M361.103,561.007L360.292,563.285L358.746,565.019L356.916,566.083C354.394,567.204 351.437,566.067 350.316,563.545C349.645,562.035 349.784,560.369 350.544,559.035C350.241,558.416 349.862,557.673 349.453,556.953C348.166,554.683 348.841,551.805 351.004,550.344C353.166,548.883 356.088,549.331 357.714,551.372C359.565,553.696 359.563,553.507 361.033,555.912C362.017,557.524 361.98,559.475 361.103,561.007Z" style="fill:rgb(239,181,51);"/>
                </g>
                <g transform="matrix(1,0,0,1,-164.867,-46.1882)">
                    <path d="M344.245,563.018C346.006,564.67 346.356,567.406 344.958,569.468C343.409,571.752 340.298,572.349 338.014,570.8L336.926,569.875L336.014,568.72C335.59,568.086 335.287,566.844 333.409,566.247C330.779,565.411 329.323,562.597 330.159,559.967C330.995,557.337 333.809,555.881 336.439,556.717C341.206,558.232 343.759,562.198 344.245,563.018Z" style="fill:rgb(239,181,51);"/>
                </g>
            </g>
            <g id="Outlines" transform="matrix(1,0,0,1,-0.014224,1.10094)">
                <path d="M645.459,582.743C644.519,600.241 638.978,612.888 627.285,628.862C613.466,647.739 598.356,657.988 583.797,667.331C568.048,677.438 537.376,690.885 515.529,697.532C505.355,700.627 496.907,702.162 492.294,701.69C476.451,700.07 471.836,692.871 461.117,677.113C456.194,669.875 453.98,663.421 452.512,658.692C452.188,657.648 451.806,656.498 451.506,655.609C443.943,655.504 425.983,653.975 409.261,647.929C389.771,640.881 386.291,635.761 377.461,628.168C375.452,626.441 373.703,624.572 372.429,623.098C366.945,628.936 363.554,631.175 353.381,636.932C347.352,640.344 337.809,643.401 331.552,642.236C328.71,641.706 324.761,639.605 320.585,636.277C312.651,629.954 303.149,619.205 298.563,612.337C291.796,602.202 286.532,588.167 286.002,577.937C285.585,569.879 290.324,562.924 293.486,559.22C293.308,557.416 293.106,554.901 292.889,551.428C291.833,534.494 297.349,530.334 302.107,520.683C303.752,517.345 307.482,513.743 312.151,510.592C314.867,508.758 317.893,507.033 320.797,505.516C309.13,500.051 290.815,489.868 270.108,472.463C256.636,461.14 241.63,438.994 238.036,429.804C237.497,428.424 237.166,427.239 237.01,426.305L236.869,424.579L237.029,423.081L237.678,421.255L238.59,419.928L239.681,418.941L240.963,418.221C242.393,417.615 244.755,416.992 247.163,416.448C245.283,413.081 243.016,409.017 240.977,405.348C235.989,396.374 233.864,381.633 233.864,381.633C233.715,380.559 233.86,379.464 234.283,378.465C234.283,378.465 234.792,375.521 245.623,368.94C247.715,367.669 250.623,364.326 254.084,359.891C263.321,348.053 275.234,328.692 282.425,312.676C282.888,311.645 283.404,310.589 283.968,309.513C280.695,302.413 272.179,282.886 271.103,269.668C270.956,267.859 270.899,266.382 270.905,265.192C269.251,251.64 268.93,230.706 275.651,208.431C278.702,198.318 283.067,187.741 289.015,180.559C293.827,174.748 299.688,171.024 306.51,170.365C313.243,169.714 322.455,170.884 345.124,183.386C364.558,194.104 374.213,209.212 380.955,218.404C382.184,220.078 383.864,221.909 384.733,222.828C389.552,220.143 393.115,218.687 395.527,217.898C394.471,211.872 395.126,206.721 397.382,203.674C399.748,200.479 404.809,198.834 411.746,200.93C420.844,203.679 435.074,212.748 445.256,219.754C444.947,218.781 444.821,217.733 444.914,216.653C445.294,212.254 449.173,208.991 453.572,209.371C465.516,210.402 497.105,220.086 506.322,222.97C513.034,214.548 518.434,211.766 532.642,200.276C543.028,191.879 565.513,177.763 582.193,173.994C592.048,171.768 600.285,173.262 605.305,178.111C611.531,184.123 617.137,187.395 621.912,195.426C626.62,203.343 630.642,216.034 632.876,241.33C635.485,270.89 628.235,292.783 623.309,307.053C621.858,311.254 620.511,316.273 620.048,318.039C621.883,320.492 623.872,324.05 625.933,328.459C630.768,338.803 636.621,354.54 644.494,369.277C650.824,381.128 659.168,385.992 663.226,390.258C666.021,393.196 667.555,396.139 667.995,399.208L667.996,399.237C678.473,383.858 691.262,367.636 704.611,356.308C721.493,341.982 742.725,336.785 759.905,336.608C772.063,336.483 782.243,338.956 787.889,342.145C801.958,350.092 811.141,364.969 813.829,384.76C816.267,402.714 818.654,436.887 801.046,471.342C783.879,504.936 774.004,513.813 744.455,541.524C718.149,566.194 659.144,579.841 645.459,582.743ZM290.308,299.217C294.25,293.526 298.944,287.633 303.762,282.002C303.618,281.235 301.254,268.567 299.529,249.04C297.561,226.759 304.3,216.228 304.3,216.228C305.94,213.515 309.406,212.545 312.215,214.013C312.215,214.013 323.427,219.861 333.443,229.413C343.684,239.18 349.191,251.295 349.191,251.295C350.565,254.308 349.234,257.87 346.22,259.243C344.781,259.899 343.216,259.938 341.825,259.471C341.77,259.526 341.714,259.581 341.656,259.634C341.656,259.634 303.591,294.83 293.372,317.591C285.805,334.445 273.265,354.817 263.544,367.273C258.88,373.25 254.674,377.482 251.855,379.195C249.311,380.741 247.437,382.084 246.244,382.998C246.994,387.079 248.64,394.434 251.466,399.518C256.007,407.688 261.675,417.818 261.675,417.818C262.634,419.531 262.694,421.604 261.837,423.37C260.979,425.135 259.312,426.37 257.373,426.675C257.373,426.675 253.8,427.205 250.424,427.934C250.973,429.082 251.629,430.373 252.33,431.584C257.905,441.215 268.294,455.263 277.829,463.277C306.976,487.775 330.976,497.123 336.426,499.048C337.674,497.599 342.447,491.944 344.803,487.502C346.128,485.004 347.216,482.933 348.013,481.407C345.617,479.195 342.868,476.419 341.136,473.909C339.568,471.638 340.139,468.522 342.41,466.954C344.681,465.387 347.798,465.958 349.365,468.229C351.859,471.841 355.908,474.811 357.129,475.662C357.59,475.849 358.03,476.094 358.438,476.395C358.438,476.395 364.025,480.164 372.946,478.127C373.118,476.008 373.301,473.531 373.397,470.617C373.421,469.866 373.525,469.17 373.713,468.55C360.424,466.387 357.1,454.526 356.808,451.83C355.724,441.827 361.056,439.046 361.056,439.046C361.056,439.046 366.432,432.67 380.772,434.051C402.672,436.159 406.491,440.447 408.288,446.308C410.785,454.454 409.839,458.28 404.43,462.687C396.338,469.28 391.094,470.001 382.505,469.394C382.587,469.744 382.633,470.109 382.637,470.484C382.637,470.484 382.694,482.391 393.894,484.709C407.364,487.498 419.384,485.032 424.918,483.024C423.184,473.285 427.589,462.583 427.589,462.583C428.681,460.049 431.625,458.877 434.159,459.969C436.694,461.06 437.865,464.004 436.774,466.539C436.774,466.539 435.156,470.33 434.594,475.016C434.261,477.798 434.249,480.946 435.474,483.677C438.676,490.815 444.472,493.788 449.037,494.897C451.719,495.549 453.367,498.255 452.715,500.936C452.064,503.618 449.358,505.266 446.676,504.615C443.975,503.958 440.987,502.864 438.066,501.121L438.457,502.89L438.375,504.384L437.994,505.854C436.531,509.833 433.578,511.805 429.914,512.774C428.164,513.237 426.221,513.432 424.368,513.683C423.403,513.814 422.46,513.876 421.746,514.284C420.559,514.963 419.412,515.621 419.103,516.756C419.065,516.896 419.047,517.039 419.046,517.186C429.052,518.68 475.383,525.375 513.745,514.585C562.004,501.01 610.177,464.296 618.634,457.046C621.508,454.583 623.998,452.222 626.014,450.202L622.085,447.288C620.22,445.905 619.048,443.779 618.874,441.463C618.699,439.147 619.54,436.87 621.177,435.223C621.177,435.223 644.467,411.877 651.675,401.404C651.217,400.911 650.607,400.274 650.094,399.81C649.027,398.845 647.818,397.814 646.52,396.666C641.561,392.281 635.488,386.377 630.381,376.816C623.463,363.867 618.042,350.175 613.517,339.847C611.002,334.109 608.997,329.524 606.98,327.3L604.807,323.809L604.072,321.143L603.879,318.703C603.878,316.043 604.636,312.51 606.038,308.162C610.037,295.754 619.697,273.995 616.938,242.737C615.04,221.241 612.16,210.331 608.159,203.603C604.226,196.987 599.32,194.573 594.191,189.62C593.333,188.792 591.987,188.883 590.506,188.928C587.304,189.024 583.603,189.993 579.685,191.396C566.139,196.244 550.538,206.383 542.703,212.718C534.539,219.319 529.544,222.63 525.423,226.14C525.059,226.874 524.538,227.545 523.865,228.099C522.311,229.379 520.656,230.983 518.982,232.757C518.778,233.011 518.572,233.272 518.365,233.539C517.004,235.295 515.747,236.65 514.61,237.694C508.375,245.12 502.945,253.058 502.945,253.058C501.067,255.785 497.328,256.474 494.6,254.596C491.873,252.717 491.184,248.978 493.063,246.251C493.063,246.251 495.682,242.472 499.444,237.562C489.209,234.339 464.319,226.735 453.281,225.424C455.934,227.347 457.535,228.559 457.535,228.559C460.167,230.569 460.672,234.337 458.662,236.969C456.653,239.601 452.884,240.106 450.252,238.097C450.252,238.097 428.682,221.585 413.62,214.543C411.396,213.503 408.569,212.685 406.895,212.246L406.9,212.412C406.925,214.137 407.317,216.13 407.889,218.253C411.061,230.015 419.815,244.966 419.815,244.966C421.483,247.827 420.513,251.504 417.652,253.171C414.791,254.838 411.114,253.869 409.447,251.007C409.447,251.007 403.615,240.956 399.372,230.355C397.627,230.957 394.458,232.231 390.132,234.71C384.504,237.935 379.298,236.638 373.808,230.338C367.478,223.076 359.331,206.067 338.846,194.77C320.415,184.605 313.235,182.775 307.762,183.304C303.174,183.748 299.792,187.337 296.856,191.811C293.053,197.605 290.247,205.059 288.096,212.186C280.459,237.499 282.855,260.89 285.084,271.471C285.223,272.133 285.257,272.792 285.195,273.432C286.263,279.702 288.063,289.713 289.934,297.641C290.06,298.178 290.185,298.704 290.308,299.217ZM314.064,270.485C324.603,259.162 333.481,250.85 333.481,250.85C333.868,250.49 334.29,250.191 334.735,249.952C332.525,246.465 329.307,242.051 325.162,238.098C320.769,233.909 316.116,230.532 312.574,228.21C311.558,232.424 310.687,238.979 311.483,247.984C312.306,257.301 313.277,264.998 314.064,270.485ZM340.162,509.329C339.618,509.896 338.959,510.361 338.21,510.685C338.906,511.465 339.571,512.298 340.12,513.144C341.756,515.663 342.386,518.359 341.899,520.643C341.425,522.863 340.401,525.862 339.549,528.177C340.561,529.116 341.649,530.279 342.572,531.615C344.673,534.656 345.894,538.467 344.762,542.592C344.078,545.082 342.235,548.042 339.818,550.862C337.573,553.482 334.86,556.034 332.647,557.979C334.233,559.484 336.215,561.095 338.219,562.033C340.837,563.258 344.118,564.14 346.99,564.175C348.198,564.19 349.328,564.155 350.1,563.623C354.817,560.376 362.046,557.001 367.381,557.79C369.958,558.171 373.834,556.637 375.34,555.98C373.696,552.038 372.909,548.014 373.899,543.366C375.201,537.252 379.636,534.23 383.883,532.87C385.055,532.494 386.199,532.255 387.213,532.104C387.908,530.359 389.14,528.705 391.162,527.296C396.03,523.904 400.848,522.142 405.826,521.916C406.731,521.875 407.646,521.885 408.569,521.949C408.798,521.351 409.095,520.792 409.449,520.278C408.871,517.999 408.957,515.955 409.454,514.128C410.415,510.602 413.096,507.71 416.785,505.602C418.913,504.385 421.804,503.928 424.733,503.556C425.556,503.452 426.38,503.343 427.155,503.157C427.281,503.127 427.41,503.104 427.538,503.078C427.003,502.629 426.357,502.119 425.804,501.778C421.378,499.043 415.329,497.02 415.329,497.02C414.425,496.715 413.665,496.176 413.094,495.494C406.887,496.039 399.593,495.937 391.867,494.502C382.312,492.726 377.332,491.779 374.84,490.01C367.512,491.557 361.584,490.531 357.511,489.136C356.899,490.3 356.193,491.637 355.405,493.124C352.169,499.226 345.154,507.299 345.154,507.299C343.856,508.782 341.988,509.472 340.162,509.329ZM328.452,515.071C326.485,516.05 324.392,517.158 322.356,518.351C318.269,520.746 314.214,523.263 312.87,525.989C309.023,533.794 304.012,536.987 304.866,550.681C305.021,553.156 305.182,555.216 305.318,556.783C306.257,557.52 306.936,558.595 307.154,559.863C307.154,559.863 308.516,564.954 316.24,565.834C320.488,566.318 323.626,565.797 325.754,565.112C323.229,562.729 321.52,560.668 321.52,560.668C320.667,559.621 320.274,558.273 320.431,556.932C320.587,555.59 321.28,554.369 322.351,553.546C322.351,553.546 326.657,550.237 330.459,546.291C332.522,544.149 334.581,541.903 335.118,539.945C335.512,538.51 334.468,537.348 333.658,536.425C332.368,534.956 330.93,534.047 330.93,534.047C330.823,533.981 330.72,533.911 330.619,533.838C327.017,535.632 323.19,538.668 323.19,538.668C321.012,540.362 317.868,539.969 316.174,537.791C314.48,535.612 314.873,532.468 317.051,530.774C317.051,530.774 324.255,525.258 329.477,523.486C329.889,523.346 330.307,523.263 330.723,523.233C331.21,521.846 331.688,520.359 331.996,519.092C331.816,518.783 331.431,518.141 331.129,517.769C330.261,516.7 329.223,515.733 328.452,515.071ZM300.157,569.943C298.893,571.945 297.84,574.494 297.986,577.317C298.424,585.77 302.951,597.3 308.543,605.673C312.041,610.912 318.764,618.677 325.056,624.334C328.469,627.403 331.515,630.022 333.749,630.438C337.726,631.179 343.639,628.657 347.471,626.488C356.281,621.503 359.169,619.735 364,614.543C364.633,613.862 365.232,613.267 365.797,612.747C363.195,608.682 359.61,602.741 356.59,596.499C352.152,587.324 351.156,577.783 350.933,573.812C349.664,574.069 348.298,574.192 346.868,574.174C344.116,574.141 341.101,573.603 338.27,572.732C338.133,572.772 337.992,572.804 337.847,572.827C336.312,573.074 335.542,574.157 334.375,575.075C331.446,577.38 327.46,579.923 316.948,578.495C316.401,578.421 315.869,578.335 315.352,578.239C317.649,581.174 319.743,583.208 319.743,583.208C321.724,585.128 321.774,588.296 319.854,590.278C317.933,592.259 314.765,592.309 312.783,590.389C312.783,590.389 308.749,586.485 305.285,581.41C302.865,577.866 300.801,573.763 300.157,569.943ZM375.44,609.24L377.737,611.994C379.1,613.234 381.274,615.62 385.285,619.07C393.093,625.784 396.107,630.412 413.342,636.644C427.477,641.755 442.589,643.341 449.856,643.596C449.277,640.849 448.824,637.843 448.699,634.833C448.406,627.748 450.012,620.782 454.857,616.145C454.17,616.11 453.477,616.07 452.777,616.026C412.01,613.475 400.657,597.988 392.667,588.999C383.47,578.653 379.754,567.602 378.567,564.403L377.162,565.877C374.135,566.878 369.307,568.184 365.917,567.682C364.576,567.484 363.045,568.014 361.523,568.645C361.049,568.842 360.578,569.057 360.114,569.285C360.597,570.059 360.874,570.973 360.869,571.952C360.869,571.952 360.831,582.302 365.592,592.144C368.936,599.057 373.023,605.574 375.44,609.24ZM461.389,648.126C461.663,648.61 461.926,649.15 462.176,649.748C463.725,653.458 464.819,661.218 471.04,670.364C479.054,682.146 481.669,688.541 493.515,689.753C497.206,690.13 503.895,688.528 512.036,686.051C532.919,679.698 562.261,666.894 577.316,657.232C590.773,648.595 604.829,639.223 617.602,621.774C627.962,607.621 632.896,596.554 633.533,580.827C633.513,580.655 633.516,580.385 633.54,579.975C633.54,579.975 634.329,554.069 630.069,532.01C625.964,510.755 605.347,486.445 605.347,486.445C605.258,486.339 605.177,486.236 605.101,486.135C585.274,500.379 586.021,504.087 539.321,521.267C528.579,525.219 501.311,533.687 489.428,534.907C489.022,535.626 488.448,536.264 487.718,536.757C484.211,539.125 482.167,541.918 479.705,544.444C474.959,549.315 469.221,553.748 454.6,554.82C433.14,556.394 424.455,542.646 422.336,538.493C412.426,531.088 404.841,529.952 396.88,535.5C396.245,535.943 396.645,536.584 396.95,537.22C397.712,538.812 399.028,540.42 400.465,541.946C404.63,546.369 409.947,549.988 409.947,549.988C412.228,551.542 412.818,554.655 411.264,556.935C409.71,559.216 406.597,559.806 404.316,558.252C404.316,558.252 392.272,549.827 388.198,542.072C387.798,542.149 387.369,542.253 386.933,542.393C385.624,542.812 383.54,542.852 382.401,544.405C378.96,549.102 381.453,553.001 382.261,555.519C386.135,567.601 393.916,579.147 400.485,584.827C408.716,591.944 416.519,603.737 453.401,606.046C490.159,608.346 506.447,598.398 515.764,590.899C525.075,583.402 532.041,577.84 537.546,568.586C542.986,559.443 545.22,552.791 545.972,549.84C546.654,547.166 549.378,545.549 552.052,546.23C554.727,546.912 556.344,549.636 555.663,552.31C554.806,555.672 552.337,563.283 546.141,573.699C544.815,575.928 543.419,577.971 541.942,579.89C551.056,576.16 557.161,575.169 557.161,575.169C559.882,574.714 562.461,576.554 562.916,579.276C563.371,581.998 561.531,584.577 558.809,585.032C558.809,585.032 545.176,587.382 528.823,598.047C517.393,605.501 507.651,612.982 502.447,617.123C505.413,620.728 509.401,626.463 511.907,633.634C512.025,633.972 512.105,634.314 512.148,634.655C513.817,640.181 515.386,648.974 515.821,662.86C515.891,665.066 514.155,666.914 511.949,666.983C509.742,667.052 507.895,665.317 507.825,663.111C507.097,639.86 497.453,627.553 493.893,623.781C493.313,623.573 492.762,623.253 492.273,622.82C489.88,620.704 486.021,619.542 481.846,619.049C481.129,618.964 480.401,618.901 479.668,618.858C479.16,619.454 478.56,620.116 477.863,620.854C477.569,621.165 476.985,624.54 476.921,625.131C476.776,626.459 476.826,627.977 476.958,629.508C477.404,634.68 478.847,639.975 478.847,639.975C479.571,642.637 477.998,645.388 475.335,646.112C472.672,646.837 469.922,645.263 469.197,642.6C469.197,642.6 466.901,634.084 466.837,627.218C466.812,624.556 467.186,622.111 467.905,620.158C465.949,620.771 464.157,621.597 462.646,622.654C459,625.203 458.503,629.895 458.691,634.419C458.907,639.65 460.324,644.869 461.389,648.126ZM650.229,427.893C646.214,432.284 642.17,436.549 638.963,439.886L642.535,442.535C643.598,440.348 644.616,438.298 645.578,436.452C646.814,434.08 648.378,431.183 650.229,427.893ZM630.051,468.326C629.721,468.614 629.386,468.903 629.047,469.194C627.175,470.799 623.421,473.643 618.246,477.276C619.855,478.992 621.861,481.157 622.384,481.832C624.124,479.386 625.948,475.991 627.968,472.267C628.66,470.991 629.355,469.673 630.051,468.326ZM472.522,536.034C457.465,536.538 443.43,535.772 432.963,534.848C435.161,538.101 441.247,544.77 453.796,543.85C464.877,543.037 468.984,539.756 472.522,536.034ZM498.416,232.025L498.528,230.113C498.416,230.799 498.383,231.435 498.416,232.025ZM661.614,440.366C660.933,441.628 660.316,442.792 659.768,443.845C656.003,451.071 651.372,461.358 646.621,470.963C657.939,471.558 678.303,475.158 693.203,492.05C703.986,504.274 707.695,519.762 708.508,533.053C708.798,537.798 708.713,542.224 708.5,546.022C718.11,541.405 726.931,536.024 733.51,529.853C735.294,528.18 737.003,526.58 738.643,525.043C738.539,524.479 738.489,523.897 738.497,523.303C738.683,510.137 738.57,479.053 715.658,454.238C695.715,432.639 665.723,439.322 661.614,440.366ZM693.429,391.41C685.633,401.256 678.569,411.764 672.765,421.138C688.137,420.482 711.285,423.311 728.712,442.186C749.028,464.189 754.491,490.256 755.86,508.462C768.058,496.018 775.819,485.447 786.451,464.741C786.094,463.94 785.852,463.072 785.745,462.156C784.587,452.189 771.953,421.547 749.862,404.24C728.196,387.266 695.666,391.422 695.666,391.422C694.905,391.514 694.155,391.506 693.429,391.41ZM796.258,438.119C801.159,417.13 799.525,398.331 797.974,386.913C796.052,372.757 790.083,361.76 780.02,356.076C776.012,353.813 768.7,352.518 760.07,352.607C746.072,352.751 728.719,356.835 714.963,368.508C713.114,370.077 711.277,371.747 709.458,373.5C723.662,374.19 744.65,377.586 760.819,390.254C777.359,403.212 789.286,422.519 796.258,438.119ZM638.175,486.59C635.978,490.12 633.751,493.077 631.645,495.305C637.23,504.416 643.387,516.593 645.779,528.976C648.493,543.031 649.173,556.671 649.268,565.594C659.285,563.329 675.799,559.13 692.323,552.891C692.782,548.423 693.372,541.65 692.905,534.007C692.281,523.798 689.763,511.78 681.48,502.39C665.069,483.785 639.862,486.587 639.862,486.587C639.29,486.649 638.725,486.649 638.175,486.59ZM305.003,406.75C302.844,409.261 299.053,409.547 296.541,407.389C294.03,405.23 293.744,401.439 295.902,398.927C295.902,398.927 309.779,382.828 330.229,387.09C339.265,388.974 344.79,391.824 348.493,394.836C353.931,399.258 355.436,404.186 357.828,408.103C359.554,410.929 358.66,414.625 355.834,416.351C353.008,418.077 349.312,417.184 347.586,414.357C345.788,411.413 345.009,407.47 340.922,404.146C338.276,401.994 334.236,400.183 327.78,398.838C314.2,396.007 305.003,406.75 305.003,406.75ZM553.886,277.142C553.074,276.885 552.213,276.637 551.441,276.468C543.783,274.787 533.306,274.04 530.456,274.126C528.262,274.193 526.206,273.055 525.097,271.16C523.988,269.265 524.003,266.916 525.135,265.035C525.135,265.035 538.016,243.875 553.838,235.027C568.877,226.617 583.226,221.066 583.226,221.066C584.728,220.485 586.4,220.532 587.867,221.196C589.334,221.86 590.472,223.085 591.026,224.597C591.026,224.597 599.393,247.755 598.58,263.128C597.783,278.196 585.497,308.599 585.497,308.599C584.703,310.543 582.95,311.93 580.875,312.257C578.8,312.583 576.706,311.8 575.353,310.194C575.353,310.194 567.231,300.104 561.768,298C555.551,295.605 548.874,293.407 548.874,293.407C546.711,292.695 545.138,290.819 544.812,288.565C544.487,286.311 545.465,284.067 547.339,282.772C547.339,282.772 550.377,280.67 553.061,277.972C553.335,277.697 553.614,277.42 553.886,277.142ZM541.189,262.866C548.737,263.688 557.854,265.195 562.209,267.4C563.309,267.957 564.212,268.568 564.915,269.183L566.685,271.26L567.706,273.945L567.814,275.52L567.596,277.063C567.001,279.459 565.436,282.112 563.338,284.536C563.068,284.847 562.79,285.155 562.507,285.459C563.684,285.891 564.891,286.343 566.082,286.802C569.612,288.162 574.084,291.917 577.741,295.41C581.191,286.085 586.126,271.387 586.597,262.495C587.068,253.581 583.931,241.702 581.748,234.669C576.456,236.958 568.192,240.749 559.695,245.501C552.256,249.661 545.632,257.066 541.189,262.866ZM453.835,424.76C451.647,427.246 447.852,427.487 445.367,425.298C442.882,423.11 442.641,419.315 444.829,416.83C444.829,416.83 450.102,410.82 457.675,406.255C463.18,402.936 469.841,400.471 476.601,400.942C492.201,402.029 499.748,403.974 512.748,419.549C514.87,422.091 514.529,425.878 511.986,428C509.444,430.122 505.657,429.781 503.535,427.238C493.544,415.268 487.756,413.749 475.767,412.913C471.491,412.615 467.353,414.433 463.871,416.532C457.964,420.093 453.835,424.76 453.835,424.76Z"/>
            </g>
            <g id="Trash">
                <g transform="matrix(1,0,0,1,19.8871,-132.763)">
                    <g transform="matrix(1,0,0,1,-26.9794,5.19449)">
                        <path d="M348.693,880.771C348.361,878.719 349.492,876.654 351.491,875.868C363.783,871.039 372.764,868.992 378.832,868.136C379.807,867.838 380.788,867.553 381.769,867.283C381.845,867.262 381.921,867.243 381.998,867.227C384.485,865.232 386.982,864.154 389.487,864.186C391.684,864.214 394.143,865.03 396.744,867.471C397.954,866.119 399.899,865.6 401.663,866.255C407.249,868.331 408.181,869.477 413.106,874.854C414.666,876.044 416.105,877.103 417.471,878.027C420.691,880.204 423.372,881.573 426.525,881.844C429.191,882.074 432.116,881.593 435.779,880.433C436.328,880.027 436.91,879.655 437.515,879.316C441.154,877.275 445.529,876.549 446.389,876.423L446.512,876.405C448.583,876.1 450.638,877.276 451.386,879.298C452.217,881.546 451.14,884.05 448.938,884.994C445.72,886.373 442.859,887.493 440.275,888.371C440.154,888.565 440.063,888.781 440.011,889.023C439.798,890.012 440.358,891.147 441.405,892.687C445.753,899.075 445.335,899.113 447.641,906.463C448.212,908.282 447.575,910.263 446.051,911.408C444.526,912.553 442.446,912.614 440.858,911.559C435.856,908.236 432.112,903.444 428.118,899.509C427.401,898.802 426.678,898.123 425.929,897.505C425.646,897.623 425.349,897.714 425.039,897.774C423.654,898.041 410.349,901.321 396.254,902.459C392.769,902.741 389.24,902.881 385.815,902.824C385.056,902.832 384.266,902.808 383.443,902.751C377.957,902.501 372.839,901.689 368.73,900.063C368.071,899.802 367.501,899.398 367.048,898.897C363.144,896.032 360.364,895.444 358.064,894.443C354.675,892.968 351.831,891.077 348.742,884.477C348.172,883.259 348.195,881.915 348.693,880.771Z" style="fill:rgb(125,171,193);"/>
                    </g>
                    <g transform="matrix(0.974607,0,0,0.974607,-23.5423,-2.85304)">
                        <path d="M350.376,911.88C351.322,909.989 382.189,889.095 404.684,892.909C414.547,894.581 431.803,910.751 433.86,912.679C442.231,910.238 471.276,898.078 460.809,914.054C457.773,918.688 445.42,917.788 454.005,927.865C454.944,928.967 467.129,966.869 438.56,937.305C425.974,924.281 399.204,951.249 362.442,929.99C358.481,927.7 344.566,912.282 354.528,910.859" style="fill:none;stroke:black;stroke-width:9.23px;"/>
                        <path d="M372.59,905.132C381.624,914.321 380.894,916.634 381.384,915.652" style="fill:none;stroke:black;stroke-width:9.23px;"/>
                        <path d="M385.079,905.932C383.784,906.431 373.965,910.207 369.853,914.251" style="fill:none;stroke:black;stroke-width:9.23px;"/>
                        <path d="M400.181,898.21C405.622,928.257 389.232,923.31 385.566,934.308" style="fill:none;stroke:black;stroke-width:9.23px;"/>
                    </g>
                </g>
                <path d="M310.748,716.764C308.94,718.849 305.78,719.075 303.695,717.268C301.609,715.46 301.384,712.3 303.191,710.215C304.342,708.886 308.758,703.977 313.263,702.475C315.881,701.603 318.715,703.02 319.587,705.638C320.46,708.255 319.043,711.089 316.425,711.962C313.788,712.841 311.422,715.986 310.748,716.764Z"/>
                <path d="M646.111,694.333C646.349,694.779 646.523,695.269 646.618,695.793C647.789,702.241 650.116,705.142 651.748,708.07C654.04,712.183 655.614,716.275 653.743,725.32C649.999,743.417 646.419,755.823 641.866,763.842C638.294,770.134 634.06,774.008 628.906,776.113C621.114,779.295 610.712,778.19 595.825,773.737C582.837,769.853 577.324,764.889 575.509,759.391C574.227,755.51 574.651,751.013 576.442,745.657C578.745,738.77 583.405,729.995 587.301,718.309C593.252,700.454 596.419,702.646 609.618,689.447C609.861,689.205 610.122,688.992 610.398,688.81C609.799,687.785 609.409,686.737 609.215,685.7L609.085,683.563L609.507,681.406C610.308,678.996 612.447,676.268 617.101,674.152C618.13,673.685 619.236,673.595 620.26,673.825C627.006,669.405 633.877,670.671 639.068,674.072C646.785,679.128 649.96,688.627 646.111,694.333Z"/>
                <path d="M621.13,685.588C621.754,685.98 622.451,686.348 623.196,686.69C627.098,688.481 632.287,689.542 636.645,688.92C637.038,688.864 637.536,688.675 637.711,688.605C637.719,688.496 637.73,688.299 637.717,688.174C637.653,687.561 637.418,686.923 637.094,686.289C635.804,683.769 633.089,681.318 629.858,681.106C627.744,680.968 625.522,681.947 623.329,684.245C622.703,684.901 621.942,685.349 621.13,685.588Z"/>
                <path d="M617.717,695.028C617.475,695.569 617.133,696.075 616.689,696.518C605.142,708.065 601.994,705.851 596.788,721.471C592.891,733.161 588.23,741.939 585.926,748.829C584.952,751.741 584.308,754.146 585.004,756.255C585.44,757.576 586.495,758.645 588.105,759.717C590.531,761.332 593.99,762.751 598.69,764.156C610.618,767.724 618.882,769.404 625.125,766.855C629.362,765.125 632.327,761.273 635.059,755.128C638.345,747.735 641.044,737.34 643.95,723.294C645.341,716.57 643.802,714.249 641.908,711.044C640.184,708.125 638.271,704.704 637.047,698.942C630.612,699.585 623.167,697.81 617.717,695.028Z" style="fill:rgb(248,242,209);"/>
                <path d="M744.723,749.178C711.678,748.749 700.738,728.915 698.62,725.186C690.879,711.556 690.018,700.052 691.827,690.987C693.275,683.735 696.484,677.998 699.508,673.912L699.455,673.823C698.065,671.44 698.871,668.375 701.255,666.985C701.879,666.621 703.358,665.771 705.487,664.806C705.924,664.109 706.538,663.511 707.308,663.087C742.164,643.887 742.928,645.781 778.139,626.822C788.15,621.431 793.865,619.467 799.246,620.122C804.49,620.759 809.698,624.046 818.668,630.563C832.252,640.433 841.188,665.377 841.531,681.863C841.628,686.549 841.034,690.596 839.852,693.58C838.756,696.347 837.127,698.36 835.175,699.615C808.67,716.654 772.585,742.846 757.907,750.074C754.274,751.862 751.476,752.54 749.931,752.47L748.128,752.142L746.725,751.46L745.61,750.498L744.767,749.265L744.723,749.178Z"/>
                <path d="M713.952,672.133C713.699,672.976 713.22,673.762 712.521,674.394C710.893,675.867 703.765,682.265 701.634,692.944C700.187,700.195 701.124,709.346 707.316,720.247C709.117,723.419 719.038,740.266 748.81,739.127C751.51,739.024 753.912,737.302 755.966,734.812C758.574,731.65 760.54,727.24 761.612,722.211C765.005,706.286 759.194,684.366 734.368,672.805C726.826,669.293 719.335,670.366 713.952,672.133Z" style="fill:rgb(149,149,149);"/>
                <path d="M594.978,721.381C597.92,723.87 619.543,742.162 642.539,729.021" style="fill:none;stroke:black;stroke-width:7px;"/>
                <path d="M591.947,740.552C598.702,747.805 622.007,756.28 632,752.949" style="fill:none;stroke:black;stroke-width:7px;"/>
                <path d="M724.865,690.992C709.745,697.712 725.834,721.921 736.123,718.246C748.068,713.98 738.2,690.864 723.758,692.945" style="fill:none;stroke:black;stroke-width:7px;"/>
                <path d="M731.689,661.394C733.964,661.901 736.275,662.662 738.59,663.74C773.012,679.769 776.908,712.394 769.112,731.823C786.455,720.65 810.625,703.509 829.768,691.203C830.366,690.819 830.572,689.984 830.845,689.038C831.394,687.134 831.589,684.75 831.533,682.071C831.244,668.19 824.227,646.964 812.79,638.653C805.843,633.606 802.1,630.542 798.039,630.048C794.114,629.571 790.182,631.695 782.88,635.627C755.854,650.179 749.145,652.43 731.689,661.394Z" style="fill:rgb(149,149,149);"/>
                <path d="M249.609,596.362L249.867,596.121L251.097,595.493L252.478,595.143L253.856,595.096L255.133,595.297C256.168,595.552 257.664,596.179 259.636,597.716C260.306,598.067 260.888,598.565 261.338,599.17C261.663,599.472 261.998,599.795 262.344,600.143C263.947,601.755 264.26,604.245 263.107,606.204C262.727,606.851 262.218,607.386 261.629,607.79C261.587,607.841 261.544,607.891 261.499,607.941C259.771,609.878 256.847,610.17 254.77,608.613L254.52,608.428C254.295,608.435 254.076,608.431 253.861,608.418C252.528,608.335 251.089,607.79 248.578,606.33C248.016,606.003 247.536,605.579 247.152,605.088C245.823,603.942 245.146,602.134 245.514,600.309C245.934,598.224 247.604,596.689 249.609,596.362Z" style="fill:rgb(108,124,0);"/>
                <g transform="matrix(1,0,0,1,10.7249,-26.102)">
                    <path d="M267.836,764.091C268.578,764.206 269.341,764.351 270.107,764.536C273.653,765.395 277.177,767.064 279.703,769.92C285.175,776.106 283.878,780.423 283.688,781.374C282.776,785.935 279.741,788.595 275.337,789.58C271.001,790.549 264.814,789.492 259.148,787.098C253.226,784.596 247.981,780.679 245.764,777.073C244.878,775.633 244.374,774.184 244.211,772.802L244.177,771.095L244.508,769.346C245.125,767.311 246.564,765.255 249.466,763.661C252.053,762.24 256.295,761.046 262.737,760.617C265.08,760.461 267.156,761.948 267.836,764.091Z" style="fill:rgb(108,124,0);"/>
                </g>
                <path d="M360.458,674.399C362.579,672.811 364.997,671.604 367.576,670.752C373.916,668.658 381.212,668.815 386.838,670.587C392.428,672.348 396.355,675.808 397.62,679.746C398.601,682.798 398.317,686.368 395.625,690.202C390.667,697.263 382.762,700.509 374.864,701.025C367.162,701.528 359.573,699.375 355.062,696.185C350.582,693.019 348.779,688.77 349.753,684.643C350.518,681.403 353.43,677.485 360.458,674.399Z" style="fill:rgb(108,124,0);"/>
                <path d="M362.374,688.93C362.939,689.21 363.549,689.466 364.194,689.699C371.139,692.208 382.067,692.109 387.441,684.456C387.842,683.885 388.146,683.404 388.12,682.917C388.091,682.347 387.543,682.009 387.005,681.622C386.139,680.997 385.048,680.508 383.834,680.125C380.001,678.918 375.032,678.821 370.713,680.247C366.973,681.483 363.687,683.932 362.623,688.186C362.559,688.444 362.475,688.693 362.374,688.93Z" style="fill:rgb(108,124,0);"/>
                <path d="M413.541,707.833L414.18,706.699L415.351,705.37C416.417,704.378 417.803,703.571 419.481,703.034C422.38,702.106 426.415,701.997 430.666,702.787C436.6,703.889 442.938,706.7 446.873,710.473C450.308,713.767 452.061,717.782 451.523,722.092C450.946,726.707 447.615,730.119 442.383,731.898C437.286,733.631 430.169,733.785 424.242,732.902C419.974,732.267 416.317,731.06 414.227,729.752C410.459,727.393 408.31,724.02 407.677,720.604C406.991,716.896 408.005,713.021 411.032,709.893C411.735,709.166 412.57,708.47 413.541,707.833Z"/>
                <path d="M431.398,713.222C430.469,714.033 429.241,714.504 427.914,714.452C424.672,714.325 422.103,714.719 420.188,715.558C418.989,716.083 418.106,716.736 417.685,717.578C417.024,718.903 417.991,720.31 419.533,721.275C422.523,723.147 430.464,724.078 436.522,723.07C437.939,722.835 439.249,722.491 440.323,721.954C440.91,721.661 441.526,721.444 441.6,720.852C441.819,719.1 440.31,717.821 438.653,716.613C436.612,715.125 434.022,713.972 431.398,713.222Z" style="fill:rgb(108,124,0);"/>
                <path d="M505.111,729.082L505.119,729.076C510.009,725.103 514.057,724.738 517.121,725.624C520.302,726.545 522.875,729.101 524.589,732.496C527.022,737.317 527.727,743.81 527.815,744.695C527.918,745.718 528.703,746.357 529.544,746.994C530.652,747.833 531.98,748.544 533.36,749.233C538.246,751.677 543.506,754.053 546.141,757.506L547.019,759.318L547.148,761.134L546.744,762.676L545.939,764.098C543.147,768.124 525.916,785.292 502.102,778.718C500.057,778.153 498.591,776.36 498.444,774.244L497.394,759.077C488.608,757.609 484.738,754.66 483.145,752.208L482.255,750.461L481.774,748.631L481.756,746.034C481.856,745.282 482.045,744.547 482.304,743.842C483.392,740.88 485.85,738.549 486.511,738.038C489.49,735.737 494.644,731.994 505.111,729.082Z"/>
                <path d="M512.784,735.861C512.13,736.999 511.033,737.88 509.661,738.223C499.893,740.665 495.229,743.94 492.626,745.951C492.526,746.028 492.145,746.613 491.894,747.007C492.281,747.259 492.927,747.647 493.569,747.894C495.618,748.681 498.53,749.282 502.575,749.669C505.009,749.902 506.918,751.862 507.087,754.301L508.159,769.783C519.833,771.418 529.923,764.899 534.728,761.048C534.452,760.903 534.171,760.759 533.887,760.614C531.359,759.321 528.583,758.127 526.186,756.732C521.582,754.052 518.35,750.527 517.865,745.693C517.802,745.064 517.39,740.427 515.661,737.002C515.288,736.263 515.034,735.431 514.341,735.23C514.127,735.168 513.902,735.309 513.615,735.43C513.346,735.544 513.07,735.687 512.784,735.861Z" style="fill:rgb(130,102,39);stroke:black;stroke-width:4.5px;stroke-linecap:butt;stroke-miterlimit:2;"/>
                <path d="M677.061,629.207C681.387,633.272 682.769,637.141 682.738,640.106L682.476,642.25L681.75,644.254C681.161,645.441 680.322,646.511 679.249,647.424C675.499,650.618 667.955,651.882 660.543,648.65C658.763,647.874 656.824,646.2 655.517,643.921C653.616,640.607 653.063,636.191 655.432,632.3C657.42,629.036 662.01,625.566 671.803,624.954C674.414,624.791 676.684,626.666 677.061,629.207Z" style="fill:rgb(108,124,0);"/>
                <path d="M690.529,600.968C690.588,598.263 692.8,596.084 695.52,596.08C704.686,596.065 731.317,602.477 740.636,608.584C749.1,614.131 748.849,620.981 745.919,624.792C743.319,628.175 736.913,630.598 728.738,627.133C716.258,621.843 716.167,623.103 702.924,621.549C694.367,620.544 690.117,616.022 688.6,611.859C687.104,607.754 688.053,603.645 690.529,600.968Z" style="fill:rgb(108,124,0);"/>
                <path d="M704.098,607.041C702.734,608.396 700.645,608.897 698.742,608.149C698.501,608.054 698.172,607.989 697.937,607.951C697.961,608.184 698.015,608.519 698.133,608.74C698.213,608.891 698.311,609.038 698.425,609.183C699.426,610.451 701.324,611.292 704.09,611.617C718.751,613.338 718.824,612.069 732.64,617.926C734.14,618.561 735.502,618.874 736.673,618.863C736.833,618.862 737.015,618.84 737.195,618.809C736.716,618.255 735.977,617.487 735.154,616.948C729.047,612.945 714.448,608.852 704.098,607.041Z" style="fill:rgb(108,124,0);"/>
                <path d="M762.497,556.976C762.379,555.364 763.043,553.725 764.413,552.659C767.764,550.053 770.45,549.121 772.743,549.018C775.382,548.898 777.782,549.788 780.343,551.723C784.574,554.921 789.959,562.285 805.085,567.489C816.214,571.319 819.331,577.147 819.082,581.68C818.832,586.219 814.783,591.214 808.103,594.5C801.69,597.653 792.999,599.499 785.467,598.726C779.738,598.139 774.673,596.036 771.276,592.313C769.875,590.779 768.765,589.933 767.636,589.62C766.448,589.292 765.33,589.5 764.14,589.623C761.087,589.94 757.793,590.222 753.587,588.752L752.093,588.074L750.715,587.088L749.563,585.827L748.723,584.392C747.776,582.316 747.612,579.457 748.638,576.153C750.399,570.485 756.051,562.741 762.497,556.976Z"/>
                <path d="M775.001,560.149C768.89,563.411 762.286,570.692 759.26,576.586C758.758,577.564 758.362,578.84 758.133,579.669C760.895,580.288 763.048,579.619 765.132,579.501C769.282,579.267 773.372,579.777 778.662,585.572C780.507,587.593 783.375,588.46 786.487,588.779C792.213,589.366 798.814,587.924 803.69,585.526C805.481,584.645 807.03,583.649 808.125,582.535C808.596,582.056 809.068,581.653 809.097,581.13C809.107,580.955 808.914,580.848 808.762,580.675C808.484,580.357 808.127,580.051 807.702,579.743C806.327,578.744 804.389,577.825 801.831,576.945C787.602,572.05 780.944,565.564 776.361,561.441C775.849,560.98 775.412,560.533 775.001,560.149Z" style="fill:rgb(161,56,56);"/>
                <path d="M214.249,508.314C217.454,504.373 221.989,502.012 227.074,500.915C234.689,499.273 243.554,500.559 249.768,502.747C253.354,504.01 256.112,505.637 257.609,507.081L259.174,509.076L259.922,511.105C260.398,513.577 259.481,517.836 256.04,522.037C250.201,529.166 236.773,537.372 215.782,532.881C214.318,532.568 212.338,531.634 210.59,530.032C208.137,527.782 206.167,524.295 206.441,520.181C206.668,516.769 208.47,512.486 214.249,508.314Z"/>
                <path d="M223.404,513.24C223.017,514.148 222.357,514.951 221.457,515.514L221.3,515.613C220.63,516.576 219.675,517.234 218.623,517.547C216.264,519.568 215.983,521.121 217.045,522.349C217.327,522.675 217.894,523.052 218.018,523.133C231.579,525.994 241.069,522.353 246.271,517.788C247.66,516.569 248.854,514.737 249.515,513.615C248.669,513.15 247.489,512.547 246.446,512.18C241.717,510.514 234.978,509.44 229.183,510.69C227.043,511.152 225.026,511.934 223.404,513.24Z" style="fill:rgb(108,124,0);"/>
                <path d="M256.726,552.192C258.157,550.368 259.463,549.456 260.462,548.992L261.678,548.558L263.051,548.358L264.472,548.464L265.784,548.866L267.572,550.008L269.057,551.823C269.587,552.708 269.971,553.735 270.199,554.565L270.546,556.96L270.312,558.379L269.823,559.605L269.057,560.77L267.791,562.002C266.425,563.065 264.381,563.879 262.404,564.112C261.805,564.183 261.215,564.204 260.655,564.177L258.714,563.872L256.954,563.125L255.734,562.191L254.633,560.755L253.976,558.994L253.852,557.233L254.123,555.684L254.622,554.445L255.415,553.291L256.426,552.366L256.726,552.192Z" style="fill:rgb(108,124,0);"/>
                <path d="M166.324,656.416C166.67,656.193 167.049,656.009 167.457,655.873C170.229,654.949 171.955,654.724 173.341,654.857C175.44,655.06 177.105,656.05 180.458,658.776C182.028,660.052 182.673,662.149 182.094,664.088C181.514,666.026 179.824,667.424 177.811,667.63C175.799,667.835 174.502,668.246 173.423,668.428C170.382,668.941 168.127,668.934 163.842,665.037C162.377,663.705 161.836,661.634 162.463,659.755C163.045,658.009 164.534,656.736 166.324,656.416Z" style="fill:rgb(108,124,0);"/>
                <path d="M549.416,726.532L549.607,726.292C549.879,726.027 550.485,725.529 551.551,724.768L552.81,724.115L553.957,723.86L555.513,723.946L556.333,724.247C558.113,723.959 560.171,723.771 561.844,724.02C564.18,724.367 565.954,726.301 566.1,728.657C566.245,731.014 564.722,733.151 562.447,733.783L557.875,735.053L557.502,735.558L555.788,736.667L553.693,737.036L551.781,736.612L550.624,735.936L549.625,734.965C549.215,734.461 548.632,733.556 548.056,731.991C547.325,730.01 547.931,727.86 549.416,726.532Z" style="fill:rgb(108,124,0);"/>
                <g transform="matrix(1,0,0,1,-249.161,-84.4848)">
                    <path d="M493.126,793.69L493.567,793.404L495.41,792.742L497.267,792.529L498.865,792.666L500.514,793.137L502.158,794.028L503.649,795.399L504.459,796.575L505.059,798.056L505.275,799.768L505.018,801.463L504.243,803.138L503.527,804.01L503.542,804.911L503.249,806.397L502.583,807.845L501.608,809.075L499.753,810.417C499.01,810.801 498.067,811.142 496.873,811.355L495.27,811.496L493.575,811.299L491.893,810.673L490.424,809.627L489.169,808.039L488.476,806.385L488.252,804.611L487.595,803.877L486.755,802.181L486.311,799.985L486.456,798.09L487.222,796.244L488.735,794.646L490.351,793.843L492.418,793.561L493.126,793.69Z" style="fill:rgb(108,124,0);"/>
                </g>
                <path d="M842.479,613.644L842.456,613.577L842.313,612.291L842.608,610.513L843.582,608.781L845.191,607.469L847.188,606.812C848.321,606.642 850.309,606.838 852.518,607.49L852.577,607.507C854.766,607.675 856.599,607.687 857.831,607.991L859.468,608.572L860.705,609.333L861.714,610.305L862.529,611.554L862.998,613.059C863.44,614.059 863.556,615.206 863.266,616.331C863.12,616.896 862.882,617.416 862.57,617.878C862.398,618.364 862.186,618.888 861.926,619.451L860.824,621.051L859.559,622.038L858.209,622.638L856.568,622.979C853.215,623.356 846.057,621.55 845.256,621.33C843.158,620.755 841.673,618.89 841.582,616.716C841.535,615.593 841.866,614.521 842.479,613.644Z" style="fill:rgb(108,124,0);"/>
                <path d="M708.868,574.328C710.517,572.84 712.927,572.643 714.778,573.749C716.552,574.185 718.015,575.579 718.456,577.468C719.063,580.062 717.528,582.677 714.967,583.412C712.298,584.178 711.379,584.237 711.274,584.236L710.924,584.172L709.67,584.4C706.998,584.886 704.427,583.15 703.878,580.491C703.33,577.831 705.005,575.22 707.651,574.609L708.868,574.328Z" style="fill:rgb(108,124,0);"/>
                <g transform="matrix(1,0,0,1,-7.9109,-23.3146)">
                    <path d="M687.967,767.348C689.241,767.102 690.363,766.819 690.603,766.76C692.889,766.191 695.261,767.294 696.299,769.408C697.337,771.521 696.759,774.073 694.912,775.534C692.222,777.66 690.445,778.657 688.858,779.108C686.465,779.786 684.246,779.361 679.304,777.968C677.023,777.325 675.507,775.168 675.673,772.804C675.839,770.44 677.643,768.517 679.991,768.2C684.938,767.532 686.376,767.162 687.967,767.348Z" style="fill:rgb(108,124,0);"/>
                </g>
                <g transform="matrix(0.976743,-0.214415,0.214415,0.976743,-28.5646,346.74)">
                    <path d="M90.264,271.55L78.746,293.411L72.668,312.271L78.908,319.27L112.292,311.77L138.527,291.665L152.699,275.755L155.653,255.266L142.681,244.443L126.164,244.385L108.311,249.816L90.264,271.55Z" style="fill:rgb(236,141,48);"/>
                    <path d="M93.378,317.846C91.408,319.27 89.419,320.563 87.449,321.657C85.76,322.595 83.628,321.986 82.69,320.297C81.751,318.609 82.361,316.476 84.049,315.538C97.564,308.03 112,290.422 113.684,287.924C119.277,279.626 129.302,271.77 135.31,264.332C140.133,258.36 148.212,252.184 148.89,251.587C149.691,250.882 150.769,250.581 151.819,250.768C152.869,250.956 153.776,251.612 154.283,252.55C157.047,257.667 156.632,264.643 154.692,271.332C151.998,280.613 146.593,289.25 145.417,290.589C143.112,293.214 132.666,305.178 109.466,315.376C104.688,317.476 98.555,319.397 97.59,319.698C96.109,320.161 94.5,319.593 93.637,318.304C93.538,318.156 93.452,318.003 93.378,317.846ZM124.83,299.081C124.283,298.918 123.773,298.621 123.35,298.198C122.827,297.674 122.498,297.013 122.378,296.318C118.381,300.151 114.504,303.725 111.035,306.944C116.456,304.318 121.027,301.629 124.83,299.081Z" style="fill:rgb(188,109,30);"/>
                    <g transform="matrix(1,0,0,1,-34.97,-334.332)">
                        <path d="M197.606,594.433C197.685,594.888 197.747,595.349 197.794,595.816C198.31,601 196.84,607.101 191.858,614.027C187.551,620.012 180.442,626.823 169.493,634.403C156.456,643.429 146.56,652.578 137.037,657.541C126.063,663.262 115.481,664.189 102.048,655.116C100.23,653.888 99.425,651.618 100.063,649.519C106.047,629.823 114.556,611.095 116.034,607.844C125.129,587.834 142.314,577.831 154.134,573.869L155.015,572.522L156.654,571.297C157.689,570.77 160.015,570.338 163.15,570.543C162.843,567.083 162.705,561.835 163.892,556.817C165.311,550.819 168.553,545.236 174.732,542.328C181.926,538.943 186.102,540.457 188.29,542.817L189.715,544.94C190.139,545.833 190.459,546.891 190.642,548.11C190.683,548.382 190.716,548.666 190.742,548.961C193.803,546.905 197.177,545.08 200.169,544.472C202.699,543.958 205.053,544.153 207.081,545.048C209.246,546.003 211.168,547.739 212.432,550.741C213.759,553.891 213.672,557.836 212.776,561.546C212.486,562.746 212.12,563.916 211.732,565.002C215.037,566.014 217.683,567.376 219.554,568.878C222.54,571.274 223.913,574.166 223.968,577.017C224.043,580.895 221.379,585.844 213.275,589.376C209.012,591.234 204.297,592.392 200.605,593.48C199.412,593.831 198.353,594.084 197.606,594.433ZM164.761,580.946C164.126,581.462 163.356,581.828 162.494,581.982C153.398,583.606 134.351,591.712 125.137,611.982C123.796,614.934 116.474,631.034 110.78,648.752C114.157,650.603 117.28,651.572 120.298,651.759C126.301,652.132 131.741,649.461 137.651,645.544C145.324,640.458 153.566,633.267 163.801,626.181C174.383,618.855 181.021,612.465 184.674,606.82C187.585,602.323 188.435,598.538 187.568,595.297C186.698,592.049 184.244,589.508 181.333,587.438C177.88,584.982 173.724,583.222 169.92,582.066C168.245,581.556 166.383,581.195 164.761,580.946Z"/>
                    </g>
                    <g transform="matrix(1,0,0,1,-34.97,-334.332)">
                        <path d="M173.492,572.717C178.445,574.294 183.794,576.713 188.121,580.02C190.197,581.607 192.04,583.393 193.55,585.371C194.272,585.05 195.077,584.742 195.954,584.453C199.515,583.278 204.69,582.21 209.279,580.209C211.318,579.32 213.178,577.74 213.784,577.197C213.51,576.918 213.027,576.455 212.605,576.19C211.584,575.547 210.296,575.001 208.794,574.547C207.372,574.118 205.774,573.779 204.024,573.545C202.401,573.328 200.986,572.329 200.239,570.871C199.491,569.414 199.505,567.682 200.276,566.237C200.59,565.648 202.236,562.59 203.055,559.198C203.435,557.627 203.779,555.957 203.217,554.624C203.159,554.487 203.052,554.308 202.99,554.208C202.817,554.21 202.412,554.221 202.159,554.272C200.753,554.558 199.247,555.323 197.764,556.212C193.189,558.954 188.974,563.067 188.342,563.681C186.801,565.176 184.478,565.521 182.569,564.538C180.661,563.555 179.593,561.463 179.916,559.341C180.314,556.728 180.656,554.357 180.785,552.341C180.817,551.824 180.806,551.222 180.779,550.683C180.226,550.863 179.582,551.098 178.99,551.376C175.773,552.89 174.362,555.997 173.623,559.119C172.21,565.095 173.294,571.493 173.481,572.646L173.492,572.717Z" style="fill:rgb(150,170,0);"/>
                    </g>
                    <path d="M109.381,310.616C110.494,312 110.399,314.032 109.105,315.304C107.728,316.658 105.51,316.639 104.156,315.261C103.355,314.447 102.5,312.342 101.739,309.473C100.669,305.443 99.276,299.082 93.743,296.484C91.994,295.663 91.241,293.577 92.062,291.828C92.883,290.08 94.969,289.327 96.718,290.147C103.386,293.278 106.297,299.951 107.88,305.404C108.49,307.508 109.285,310.281 109.381,310.616Z"/>
                    <path d="M104.533,279.909C102.97,278.774 102.623,276.583 103.758,275.02C104.893,273.457 107.083,273.11 108.646,274.245C119.461,282.099 125.878,286.601 128.012,300.353C128.308,302.262 126.999,304.052 125.09,304.348C123.182,304.645 121.391,303.336 121.095,301.427C119.312,289.939 113.567,286.47 104.533,279.909Z"/>
                    <path d="M120.95,267.008C119.217,266.155 118.503,264.055 119.357,262.322C120.21,260.589 122.31,259.875 124.043,260.729C141.452,269.303 144.354,273.182 149.491,283.968C150.321,285.712 149.579,287.803 147.835,288.633C146.091,289.464 144.001,288.722 143.17,286.978C138.718,277.627 136.042,274.442 120.95,267.008Z"/>
                </g>
                <path d="M757.487,654.684C771.434,661.656 792.259,672.257 789.461,711.417" style="fill:none;stroke:black;stroke-width:7px;"/>
                <path d="M774.854,646.071C787.837,651.354 796.482,663.565 797.876,665.533C806.833,678.184 804.279,686.472 806.224,698.677" style="fill:none;stroke:black;stroke-width:7px;"/>
                <path d="M714.58,727.492C726.588,734.036 727.086,733.428 754.395,730.485C766.79,729.149 762.296,721.594 774.59,715.179C800.298,701.767 800.854,702.723 823.057,684.221" style="fill:none;stroke:black;stroke-opacity:0.25;stroke-width:25px;"/>
                <path d="M585.278,758.079C586.254,758.363 597.508,770.467 624.933,761.325" style="fill:none;stroke:black;stroke-opacity:0.25;stroke-width:25px;"/>
                <g transform="matrix(1,0,0,1,-79.741,448.812)">
                    <g>
                        <g id="Food1" serif:id="Food" transform="matrix(1.0587,0.734885,-0.987051,1.42198,580.49,-589.989)">
                            <g transform="matrix(1,0,0,1,-165.835,-42.4651)">
                                <path d="M353.577,491.261C353.577,491.261 353.493,501.95 348.994,505.563C344.496,509.175 345.835,517.86 345.835,517.86C345.835,517.86 339.924,526.373 339.579,534.892C339.234,543.411 345.512,542.944 340.673,549.01C335.834,555.076 335.1,560.844 335.1,560.844L340.93,567.749L356.121,560.862L367.703,554.477L379.587,548.21L383.94,540.472L401.33,531.75L414.298,526.398L425.028,516.1L433.362,509.776L433.531,494.5L410.427,491.552L392.462,491.155L380.398,485.996L365.132,487.564L353.577,491.261Z" style="fill:rgb(232,162,42);"/>
                            </g>
                            <g transform="matrix(1,0,0,1,-164.867,-46.1882)">
                                <path d="M351.335,529.207C351.483,528.817 351.652,528.41 351.846,527.986C352.533,526.482 353.918,525.415 355.548,525.135C357.177,524.856 358.839,525.399 359.988,526.588C361.271,527.914 362.013,529.045 362.429,529.982L362.942,531.624L363.018,533.539L362.626,535.186L362.263,535.836L362.493,537.229L362.399,538.627L361.943,539.998L361.219,541.08L360.286,541.92L359.105,542.542L357.662,542.878L356.169,542.858L354.523,542.46L352.763,541.527L352.652,541.424C351.062,540.806 349.894,539.418 349.56,537.739C349.101,535.432 348.833,533.072 349.784,531.182L350.682,529.826L351.335,529.207Z" style="fill:rgb(239,181,51);"/>
                            </g>
                            <g transform="matrix(1,0,0,1,-164.867,-46.1882)">
                                <path d="M355.107,504.231C355.024,503.166 355.28,502.067 355.91,501.105C357.319,498.955 360.108,498.248 362.349,499.384C362.93,499.468 366.496,499.99 368.787,500.531C371.376,501.142 373.815,502.167 375.568,503.687C376.285,504.31 376.806,504.854 377.175,505.307L378.159,506.848L378.656,508.464L378.684,509.952L378.412,511.128L377.875,512.23L377.014,513.271L375.694,514.197L373.944,514.778L372.136,514.911C370.564,514.883 367.469,514.297 365.715,513.94C365.54,514.026 365.369,514.104 365.205,514.173L363.117,514.733L361.11,514.676L359.193,514.009L357.852,513.063L356.576,511.551C355.861,510.443 355.374,508.905 354.974,507.661C354.605,506.516 354.668,505.303 355.107,504.231Z" style="fill:rgb(239,181,51);"/>
                            </g>
                            <g transform="matrix(1,0,0,1,-164.867,-46.1882)">
                                <path d="M388.858,492.521L389.731,492.738L390.814,493.283L391.682,494.005C391.842,494.17 392.3,494.829 392.565,495.218C396.658,497.689 396.816,497.753 399.614,501.974C400.744,503.679 400.722,505.899 399.559,507.581C398.395,509.263 396.325,510.067 394.332,509.611C387.573,508.065 383.725,505.592 382.032,502.394C381.099,500.632 380.66,498.565 380.904,496.054C381.172,493.308 383.619,491.295 386.365,491.562C387.302,491.653 388.153,491.998 388.858,492.521Z" style="fill:rgb(239,181,51);"/>
                            </g>
                            <g transform="matrix(1,0,0,1,-164.867,-46.1882)">
                                <path d="M391.577,522.172C392.326,523.011 392.797,524.106 392.841,525.316C392.942,528.073 390.784,530.394 388.026,530.494C380.563,530.766 376.682,530.237 374.743,529.643L372.539,528.661L371.036,527.364L370.126,525.899L369.681,524.102L369.885,522.099L370.888,520.124L372.068,518.909L373.661,517.956L375.723,517.461L378.118,517.668C378.904,517.854 379.816,518.204 380.873,518.611C382.156,519.104 383.867,519.744 386.261,519.361C388.512,519.001 390.654,520.206 391.577,522.172Z" style="fill:rgb(239,181,51);"/>
                            </g>
                            <g transform="matrix(1,0,0,1,-164.867,-46.1882)">
                                <path d="M367.558,543.494C367.58,543.374 367.604,543.256 367.63,543.139C367.764,542.545 367.942,541.982 368.164,541.455L369.133,539.722L370.085,538.631L371.273,537.695L372.988,536.86L374.799,536.435C375.812,536.304 377.002,536.315 378.39,536.563C381.107,537.048 382.918,539.648 382.432,542.365C382.42,542.434 382.406,542.503 382.391,542.571C382.668,543.857 382.433,545.235 381.67,546.385C379.679,549.389 379.582,549.583 378.278,552.2C378.319,552.433 378.352,552.644 378.375,552.828C378.581,554.476 375.302,552.896 374.053,553.989C372.804,555.082 370.26,556.801 368.655,556.379C365.092,555.441 366.608,555.977 365.557,554.797L364.716,553.647L364.092,552.26L363.795,550.743L363.843,549.268L364.209,547.827L365.07,546.141C365.661,545.249 366.515,544.338 367.558,543.494Z" style="fill:rgb(239,181,51);"/>
                            </g>
                            <g transform="matrix(1,0,0,1,-164.867,-46.1882)">
                                <path d="M361.103,561.007L360.292,563.285L358.746,565.019L356.916,566.083C354.394,567.204 351.437,566.067 350.316,563.545C349.645,562.035 349.784,560.369 350.544,559.035C350.241,558.416 349.862,557.673 349.453,556.953C348.166,554.683 348.841,551.805 351.004,550.344C353.166,548.883 356.088,549.331 357.714,551.372C359.565,553.696 359.563,553.507 361.033,555.912C362.017,557.524 361.98,559.475 361.103,561.007Z" style="fill:rgb(239,181,51);"/>
                            </g>
                            <g transform="matrix(1,0,0,1,-164.867,-46.1882)">
                                <path d="M344.245,563.018C346.006,564.67 346.356,567.406 344.958,569.468C343.409,571.752 340.298,572.349 338.014,570.8L336.926,569.875L336.014,568.72C335.59,568.086 337.5,567.187 335.622,566.59C332.992,565.754 333.659,564.391 334.495,561.761C335.331,559.131 333.809,555.881 336.439,556.717C341.206,558.232 343.759,562.198 344.245,563.018Z" style="fill:rgb(239,181,51);"/>
                            </g>
                        </g>
                        <g transform="matrix(1,0,0,1,105.067,-448.557)">
                            <path d="M152.453,725.285C152.57,725.063 152.705,724.835 152.86,724.603L153.486,723.938L154.208,723.519C154.899,723.219 156.495,722.9 158.748,722.686C168.204,721.792 180.268,725.354 188.418,725.592C194.009,725.755 197.574,727.514 200.495,729.177C202.65,730.403 204.267,731.726 206.506,731.507C207.043,731.455 207.603,731.02 208.3,730.512C209.974,729.292 211.951,727.443 214.287,725.557C220.762,720.328 229.736,714.95 242.018,719.284C248.319,721.508 253.173,722.25 256.807,722.497C256.932,722.428 257.056,722.36 257.177,722.294C257.761,721.705 258.264,721.249 258.629,721.044L259.36,720.774C259.416,720.763 259.675,720.724 260.111,720.667C260.285,720.644 263.206,718.798 263.451,718.766C267.747,717.037 270.146,716.815 277.794,715.186C280.181,714.678 288.61,710.973 290.67,710.736C293.475,709.978 294.792,708.635 296.981,707.663C300.46,706.119 240.171,647.748 240.171,647.748C239.979,647.673 239.808,647.595 239.658,647.515L239.574,647.459C238.35,647.143 237.088,646.631 235.826,645.871C235.109,645.44 231.974,639.734 231.952,638.897C231.929,638.061 247.849,630.4 250.872,631.205C251.099,630.848 252.736,629.416 253.131,629.212C254.13,628.696 260.42,634.823 261.164,635.666C261.526,636.077 262.371,637.038 263.524,638.393C268.478,640.891 273.276,644.657 278.012,649.198C291.319,661.954 304.28,680.854 319.941,691.939C323.609,694.535 325.462,696.795 327.029,698.808C329.27,697.675 331.095,697.672 332.459,698.185C334.727,699.037 336.256,701.641 336.295,705.262C336.339,709.337 334.604,714.77 331.323,718.597C331.164,718.782 331.002,718.964 330.837,719.141L330.571,719.816C329.962,720.861 328.694,721.994 326.292,722.581C326.103,722.628 325.916,722.671 325.73,722.711C324.611,723.154 323.416,723.438 322.148,723.531C319.988,723.69 318.649,723.152 317.871,722.51C317.589,722.413 317.317,722.306 317.056,722.189C317.19,722.537 317.246,722.919 317.208,723.31C317.093,724.483 316.16,725.408 314.985,725.513C312.992,725.692 311.128,725.824 309.385,725.917C307.937,726.357 306.573,726.592 305.314,726.684L304.777,727.311C304.546,727.525 304.258,727.745 303.906,727.956C303.039,728.475 301.617,729.006 299.74,729.428C294.378,730.635 284.809,731.177 275.037,729.51C274.532,729.424 274.084,729.187 273.737,728.848C272.287,729.244 270.84,729.621 269.411,729.974C266.896,732.389 264.378,734.526 251.15,737.734C249.84,738.052 248.52,737.253 248.193,735.946C247.799,734.371 247.411,733.406 246.831,732.793C246.737,732.694 246.638,732.606 246.536,732.526C245.717,732.591 244.849,732.66 243.93,732.734C243.225,732.79 242.53,732.54 242.023,732.046C241.554,731.589 241.289,730.965 241.282,730.314C240.794,730.075 240.283,729.802 239.746,729.481C238.01,729.366 236.406,729.231 235.068,729.134C233.859,729.046 232.895,728.088 232.8,726.879C232.798,726.86 232.797,726.841 232.796,726.822C231.67,726.599 230.487,726.417 229.342,726.305C228.114,726.184 226.927,726.148 225.896,726.251C225.366,726.304 224.887,726.37 224.507,726.519C223.601,727.215 222.52,728.056 221.431,728.908C218.821,731.32 216.457,734.231 213.858,736.301C211.724,738.001 209.442,739.193 206.886,739.493C204.32,739.795 201.86,738.293 198.099,737.152C187.173,733.837 187.312,729.525 178.88,730.24C171.112,730.898 169.755,731.792 158.717,730.84C158.48,731.951 157.491,732.784 156.31,732.78L155.689,732.704L154.953,732.449C154.501,732.247 153.891,731.891 153.34,731.372C152.955,731.009 152.601,730.57 152.329,730.061C151.321,729.794 150.58,728.91 150.511,727.85C150.437,726.699 151.174,725.651 152.283,725.333C152.34,725.317 152.396,725.301 152.453,725.285Z" style="fill:rgb(156,138,108);"/>
                        </g>
                        <g transform="matrix(1,0,0,1,106.239,-452.152)">
                            <path d="M234.916,632.725C239.582,628.955 244.225,627.03 248.841,626.484C256.164,625.619 263.596,628.288 271.251,633.626C287.579,645.01 305.556,669.255 328.811,688.18C339.442,696.831 341.726,712.149 331.934,722.817C326.085,729.189 315.487,734.091 298.819,733.776C278.574,733.392 278.243,733.467 260.61,743.264C253.75,747.075 247.75,744.285 241.475,740.095C238.19,737.901 234.833,735.129 230.518,735.356C227.751,735.502 224.732,736.99 221.085,740.26C215.416,745.342 211.029,746.907 207.379,747.068C204.689,747.186 202.275,746.545 199.895,745.512C196.392,743.992 193.05,740.969 187.181,741.741C184.575,742.084 160.195,745.168 147.709,742.104C141.984,740.699 138.394,737.728 137.331,734.221C136.764,732.352 136.752,730.19 137.703,727.717C139.538,722.948 145.311,715.265 153.326,706.487C170.91,687.229 199.308,661.881 215.16,649.887C217.753,647.925 220.039,646.307 221.921,645.095C221.905,644.901 221.894,644.71 221.889,644.522C221.792,641.012 223.538,638.202 226.046,636.202C228.8,634.006 232.454,632.964 233.261,632.794C233.821,632.677 234.378,632.657 234.916,632.725ZM226.857,654.098C223.358,656.489 217.468,660.655 211.902,665.242C208.964,667.664 205.833,670.313 202.591,673.12C211.659,679.193 214.021,686.31 212.958,692.325C211.907,698.267 207.185,703.736 200.301,706.89C191.6,710.877 179.518,711.197 169.148,704.352C165.093,708.475 161.335,712.468 158.069,716.171C152.571,722.406 148.472,727.669 147.073,731.215C147.428,731.423 148.021,731.751 148.484,731.917C149.227,732.183 150.059,732.401 150.959,732.587C152.226,732.849 153.614,733.041 155.08,733.182C167.059,734.332 183.822,732.097 185.877,731.827C192.769,730.92 197.408,733.121 201.607,735.243C203.385,736.142 204.97,737.164 206.939,737.077C208.991,736.987 211.224,735.67 214.409,732.814C220.602,727.262 225.964,725.435 230.612,725.348C235.348,725.258 239.506,727.029 243.33,729.37C245.698,730.819 247.919,732.487 250.13,733.741C251.952,734.774 253.721,735.651 255.754,734.522C275.716,723.432 272.383,726.652 293.784,718.438C303.649,714.651 298.044,688.534 321.785,710.477C327.969,716.193 320.714,701.161 314.532,696.13C291.492,677.381 274.396,655.651 258.22,644.372C252.871,640.643 252.729,635.881 247.612,636.486C244.353,636.871 243.55,638.402 240.252,641.305C239.009,642.399 237.372,642.764 235.868,642.432C235.691,642.491 235.508,642.54 235.321,642.58C235.076,642.631 234.242,642.891 233.346,643.351C233.196,643.428 233.014,643.548 232.828,643.681C233.672,644.584 234.185,645.798 234.176,647.13L234.173,647.276C235.95,648.964 238.569,650.845 242.246,652.993C282.464,676.495 288.701,691.148 297.873,707.655C299.213,710.067 298.343,713.114 295.93,714.454C293.518,715.794 290.472,714.924 289.131,712.512C280.581,697.123 274.694,683.537 237.2,661.627C232.439,658.844 229.12,656.32 226.857,654.098Z"/>
                        </g>
                        <g transform="matrix(1,0,0,1,106.239,-452.152)">
                            <path d="M194.872,679.921C188.723,685.429 182.42,691.289 176.465,697.082C183.18,700.673 190.633,700.32 196.135,697.799C199.716,696.158 202.564,693.675 203.111,690.585C203.699,687.254 201.262,683.953 195.816,680.659C195.465,680.447 195.15,680.199 194.872,679.921Z" style="fill:rgb(239,181,51);"/>
                        </g>
                        <g transform="matrix(1,0,0,1,106.239,-452.152)">
                            <path d="M230.437,690.579C231.964,689.782 233.707,689.173 235.613,688.783C241.383,687.604 248.665,688.365 254.054,690.725C258.563,692.698 261.756,695.836 262.887,699.467C263.744,702.218 263.604,705.38 261.689,708.862C259.338,713.135 254.569,715.807 248.722,716.626C241.463,717.644 232.588,715.829 226.975,712.526C222.702,710.01 220.224,706.526 219.868,703.017C219.513,699.521 221.001,695.243 226.841,691.35C227.941,690.616 229.227,690.377 230.437,690.579Z"/>
                        </g>
                        <g transform="matrix(1,0,0,1,106.239,-452.152)">
                            <path d="M230.619,702.776C231.041,703.174 231.568,703.625 232.048,703.908C235.99,706.228 242.236,707.438 247.334,706.723C249.733,706.387 251.962,705.796 252.926,704.043C254.08,701.947 252.101,700.786 250.044,699.885C246.412,698.296 241.505,697.786 237.617,698.581C235.987,698.914 234.465,699.28 233.832,700.387C233.113,701.645 231.929,702.473 230.619,702.776Z" style="fill:rgb(239,181,51);"/>
                        </g>
                    </g>
                </g>
            </g>
        </g>
    </g>
</svg>
