<?xml version="1.0" encoding="UTF-8" standalone="no"?>
<!DOCTYPE svg PUBLIC "-//W3C//DTD SVG 1.1//EN" "http://www.w3.org/Graphics/SVG/1.1/DTD/svg11.dtd">
<svg width="100%" height="100%" viewBox="0 0 487 622" version="1.1" xmlns="http://www.w3.org/2000/svg" xmlns:xlink="http://www.w3.org/1999/xlink" xml:space="preserve" xmlns:serif="http://www.serif.com/" style="fill-rule:evenodd;clip-rule:evenodd;stroke-linejoin:round;stroke-miterlimit:2;">
    <g transform="matrix(1,0,0,1,-221.768,-194.719)">
        <g id="Coffee-Cooper" serif:id="Coffee Cooper">
            <g id="Base">
                <path d="M359.142,546.561C288.775,523.625 259.98,480.426 259.98,480.426L259.999,468.865L262.044,459.976L252.122,439.628L252.806,423.676L269.084,412.444C269.084,412.444 280.642,382.492 285.688,369.47C290.734,356.448 299.191,331.244 299.191,331.244C299.191,331.244 286.709,294.293 284.951,269.55C283.194,244.808 297.041,223.746 297.041,223.746L305.58,205.939C305.58,205.939 318.766,202.195 337.648,213.397C356.531,224.598 394.784,265.66 394.784,265.66L414.969,263.381L415.62,256.382L430.27,253.612L458.268,264.333L444.072,252.115L468.535,250.654L504.672,275.946C504.672,275.946 530.391,244.855 550.902,228.902C571.412,212.95 601.165,206.08 615.001,212.161C628.837,218.241 631.974,234.222 636.372,277.629C640.77,321.036 618.643,357.284 618.643,357.284L628.573,378.086L644.531,425.213L661.297,448.256L639.374,481.066L644.42,486.666L578.235,538.855C578.235,538.855 571.295,543.787 555.733,549.031L563.563,568.65L570.237,593.776L578.701,601.374C578.701,601.374 597.272,560.097 607.69,547.4C618.108,534.703 622.459,522.878 670.316,533.12C718.174,543.361 700.56,617.263 694.319,643.189C688.079,669.116 658.839,699.975 633.227,719.658C607.615,739.34 551.749,733.221 551.749,733.221L549.511,750.989L543.438,796.548C543.438,796.548 518.475,807.907 503.753,809.344C489.031,810.782 476.21,807.86 476.21,807.86L461.328,797.425L466.383,781.636L470.342,766.651L460.58,737.348L433.192,740.223L427.453,788.23L420.892,795.751L398.649,801.191L367.605,801.004L350.963,797.254L342.322,787.162L346.397,774.302L354.224,764.535L349.584,748.908L344.154,696.408L342.236,672.479C342.236,672.479 328.795,670.688 317.433,672.609C306.072,674.529 238.609,686.85 238.609,686.85L232.528,678.549L232.724,646.969C232.724,646.969 326.513,584.028 335.791,577.843C345.07,571.657 359.142,546.561 359.142,546.561Z" style="fill:rgb(0,0,255);"/>
            </g>
            <g id="Lights">
                <path id="Light-Tan" serif:id="Light Tan" d="M278.582,386.434C278.582,386.434 321.253,346.403 346.828,344.65C370.822,343.004 380.817,347.003 388.849,370.085C396.881,393.167 389.687,423.526 389.687,423.526C389.687,423.526 391.392,373.575 353.524,374.088C315.656,374.602 299.426,395.399 292.814,402.252C286.203,409.104 280.363,418.248 277.287,421.734C274.212,425.22 269.542,431.007 269.542,431.007C269.542,431.007 267.553,432.156 267.018,434.448C266.483,436.739 272.165,455.368 278.934,464.267C285.702,473.165 292.461,482.86 295.653,485.266C298.845,487.672 319.379,497.781 327.233,497.596C335.087,497.412 345.887,497.704 360.831,477.317C375.775,456.929 395.061,455.274 405.654,456.764C416.247,458.253 431.872,456.837 446.053,466.685C460.234,476.533 474.934,495.977 488.574,503.274C502.215,510.571 522.885,518.505 549.672,510.437C576.459,502.37 588.795,489.288 593.224,483.847C597.653,478.405 602.634,469.991 603.346,466.199C604.058,462.407 601.003,461.018 598.215,457.977C595.427,454.936 576.816,440.046 571.393,432.273C565.97,424.5 541.214,399.836 529.892,393.648C518.57,387.46 498.138,381.659 487.559,381.256C476.98,380.854 461.046,385.944 455.226,391.978C449.406,398.012 441.414,412.67 440.25,415.458C439.086,418.246 438.421,425.006 438.421,425.006C438.421,425.006 437.918,395.079 444.585,381.607C451.252,368.134 452.77,357.753 473.894,353.162C495.019,348.571 508.955,353.756 518.825,357.632C528.694,361.507 561.388,381.013 576.414,399.154C591.44,417.295 607.898,429.676 614.432,433.687C620.965,437.697 632.981,445.527 639.965,447.208C646.948,448.888 655.949,449.502 655.949,449.502L651.846,465.384L638.915,481.124L642.558,487.922L631.711,500.755L586.658,532.338L524.934,549.27L491.996,555.274L474.092,557.415C474.092,557.415 488.69,587.815 489.197,607.267C489.704,626.719 497.578,626.893 486.786,671.513C475.994,716.132 436.343,716.254 421.544,716.212C406.744,716.17 371.811,703.961 367.598,682.22C363.386,660.479 357.131,645.848 364.76,613.208C372.39,580.568 377.577,573.889 381.069,568.069C384.561,562.249 387.64,555.446 387.64,555.446L338.064,540.104L315.046,527.64L298.353,517.048L272.472,491.343L263.772,479.928L260.945,469.242L262.693,461.078L257.079,450.448L249.101,432.666L253.038,423.065L268.229,409.775L278.582,386.434Z" style="fill:rgb(0,255,0);"/>
            </g>
            <g id="Darks">
                <path d="M330.898,376.839C330.898,376.839 302.352,391.505 289.812,405.377C277.272,419.249 266.77,432.651 266.77,432.651C266.77,432.651 266.867,446.44 276.651,461.566C286.434,476.693 301.353,492.255 312.043,495.548C322.732,498.841 336.102,504.946 354.439,486.532C372.776,468.118 368.115,466.38 372.43,464.531C376.744,462.682 383.062,459.679 383.062,459.679L389.525,423.302C389.525,423.302 390.829,396.3 377.505,384.974C364.182,373.649 354.984,370.737 330.898,376.839Z" style="fill:rgb(255,0,0);"/>
                <path d="M454.263,391.292C454.263,391.292 439.185,407.908 439.021,423.818C438.858,439.728 439.699,445.905 441.086,452.488C442.472,459.072 446.479,467.536 446.479,467.536C446.479,467.536 454.112,471.356 459.579,476.921C465.047,482.486 468.129,489.696 477.143,496.515C486.158,503.333 503.7,515.78 533.869,512.878C564.038,509.975 581.315,496.036 588.403,489.349C595.491,482.662 603.737,470.486 603.031,465.247C602.326,460.008 594.054,453.609 588.96,449.603C583.865,445.596 550.443,408.237 542.998,403.229C535.552,398.221 523.156,383.604 497.606,382.222C472.056,380.841 470.355,381.028 454.263,391.292Z" style="fill:rgb(255,0,0);"/>
                <path d="M514.05,657.836C514.05,657.836 526.555,662.233 538.112,659.845C549.669,657.456 569.913,651.831 569.913,651.831L567.941,680.281L565.259,701.207L556.324,709.123L544.333,712.649L532.028,711.956L519.645,707.41L512.826,699.783L512.191,689.145L514.05,657.836Z" style="fill:rgb(255,0,0);"/>
                <path d="M351.707,743.282C351.707,743.282 368.007,755.832 385.363,752.83C402.718,749.828 424.711,739.791 424.711,739.791L427.713,752.017L427.089,783.375L422.308,794.739L403.686,799.641L381.993,800.279L364.358,800.518L349.781,795.818L344.685,784.564L354.239,771.004L351.707,743.282Z" style="fill:rgb(255,0,0);"/>
                <path d="M467.512,755.154C467.512,755.154 486.427,764.888 505.692,761.96C524.956,759.032 549.135,750.1 549.135,750.1L543.625,795.793L527.715,805.119L500.491,809.6L473.765,808.602L461.225,796.964L471.997,777.443L467.512,755.154Z" style="fill:rgb(255,0,0);"/>
                <path d="M576.294,626.162C576.294,626.162 606.87,617.202 625.987,631.937C645.104,646.671 653.425,652.785 656.276,667.205C659.126,681.626 657.159,697.145 657.159,697.145L643.129,712.584L604.24,730.361C604.24,730.361 613.053,693.692 609.427,682.91C605.802,672.127 576.036,657.931 576.036,657.931L576.294,626.162Z" style="fill:rgb(255,0,0);"/>
                <path d="M589.558,575.277C589.558,575.277 623.081,566.395 640.129,574.937C657.178,583.48 672.997,586.967 680.085,600.604C687.174,614.242 695.035,626.546 695.035,626.546L701.785,582.427L680.975,538.42L657.67,529.204L631.808,531.219L609.49,542.86L589.558,575.277Z" style="fill:rgb(255,0,0);"/>
            </g>
            <path d="M235.983,621.445C235.983,621.445 230.504,630.544 242.82,652.305C247.469,660.519 250.645,676.925 245.137,689.312C239.608,701.75 247.806,721.18 248.865,722.224C252.666,725.974 274.091,734.069 284.919,732.457C295.748,730.844 324.621,719.678 324.621,719.678L337.733,617.979C337.733,617.979 310.994,626.042 283.221,624.555C255.449,623.067 235.983,621.445 235.983,621.445Z" style="fill:rgb(255,238,220);"/>
            <path d="M242.393,647.097C242.393,647.097 279.253,652.171 286.311,651.105C293.369,650.039 335.928,641.64 335.928,641.64L329.356,691.622C329.356,691.622 283.933,699.828 276.744,699.724C269.554,699.619 245.512,695.418 245.512,695.418L244.821,689.478L252.859,682.099L249.057,672.734L247.114,661.612L242.393,647.097Z" style="fill:rgb(51,177,204);"/>
            <g transform="matrix(1,0,0,1,0.452086,-1.26476)">
                <path d="M331.503,596.139L326.597,588.288L320.791,582.125C320.791,582.125 276.097,578.867 265.785,580.135C255.473,581.402 244.154,584.659 244.154,584.659L241.552,594.433L234.872,596.276C234.872,596.276 228.346,599.027 227.408,605.71C226.471,612.394 229.583,617.357 229.583,617.357C229.583,617.357 259.801,622.775 282.681,622.622C305.561,622.469 338.655,614.414 338.655,614.414L338.182,603.049L331.503,596.139Z" style="fill:white;"/>
            </g>
            <path d="M310.899,429.437C310.899,429.437 315.143,464.465 336.851,463.709C358.559,462.952 374.442,442.337 371.266,433.953C368.09,425.569 310.899,429.437 310.899,429.437Z" style="fill:rgb(255,162,162);"/>
            <path d="M464.207,432.238C464.207,432.238 466.355,471.302 496.493,471.695C526.631,472.088 537.997,448.676 540.807,440.566C543.617,432.456 464.207,432.238 464.207,432.238Z" style="fill:rgb(255,162,162);"/>
            <g id="Shadow" opacity="0.25">
                <path d="M237.052,624.549L238.484,632.406C238.484,632.406 263.442,637.414 276.365,637.197C289.287,636.98 316.213,634.109 316.213,634.109C316.213,634.109 314.219,646.113 313.998,648.219C313.777,650.325 309.274,664.872 308.318,672.049C307.361,679.226 306.511,690.304 304.819,692.693C303.126,695.082 286.924,698.476 286.924,698.476L266.332,696.726L251.075,695.405L249.744,704.138C249.744,704.138 262.217,706.565 271.485,707.2C280.753,707.835 303.016,707.911 303.016,707.911L302.076,718.796C302.076,718.796 303.621,722.201 296.85,724.955C290.08,727.71 320.593,719.676 320.593,719.676L324.2,693.432L330.057,653.766L330.72,639.272L328.433,620.598L280.732,626.425L247.825,622.875L237.052,624.549Z"/>
                <path d="M408.024,582.604C408.024,582.604 397.896,589.464 394.99,597.322C392.859,603.084 391.873,609.611 394.125,612.208C396.376,614.805 396.36,616.056 398.274,616.221C400.187,616.386 400.613,612.972 400.613,612.972C400.613,612.972 402.385,624.274 404.189,627.667C405.992,631.059 407.644,631.738 409.218,631.938C410.793,632.139 409.599,626.35 409.687,622.643C409.693,622.391 409.695,622.119 409.694,621.83C409.677,617.853 409.058,610.605 410.057,608.604C410.191,608.336 410.313,608.076 410.421,607.823C411.18,606.051 411.284,604.641 410.33,603.418C409.239,602.02 401.74,603.746 401.74,603.746C401.74,603.746 403.865,595.061 406.921,592.366C409.977,589.671 413.009,585.905 413.78,584.201C414.551,582.497 414.101,581.241 412.295,581.71C410.489,582.179 408.024,582.604 408.024,582.604Z"/>
                <path d="M360.619,544.844L352.606,558.356C352.606,558.356 388.524,578.726 432.313,578.869C476.102,579.012 483.213,579.057 512.478,574.872C541.743,570.688 561.88,565.206 561.88,565.206L556.484,545.109C556.484,545.109 492.01,559.181 453.953,557.352C415.895,555.523 360.619,544.844 360.619,544.844Z"/>
                <path d="M517.328,706.419C517.328,706.419 509.237,714.963 519.181,724.67C529.125,734.378 550.532,740.889 550.532,740.889L555.843,729.977L622.745,726.364C622.745,726.364 642.209,712.775 651.21,704.345C660.211,695.916 682.956,667.872 687.928,658.96C692.9,650.049 699.665,602.57 700.612,596.789C701.559,591.009 679.617,661.699 643.719,687.576C643.719,687.576 611.84,704.213 600.693,706.948C589.545,709.683 586.174,708.473 586.174,708.473C586.174,708.473 587.501,701.921 585.443,695.758C583.386,689.594 574.302,679.892 574.302,679.892L570.467,697.362L566.506,704.507L556.569,710.522L548.566,714.193L537.513,714.548L517.328,706.419Z"/>
                <path d="M239.9,586.776L240.133,602.273L267.477,609.585L294.475,608.37L326.012,603.101L324.407,590.932C324.407,590.932 301.138,600.441 278.807,598.49C256.476,596.539 252.424,595.55 251.895,592.164C251.366,588.779 254.529,585.315 254.529,585.315L239.9,586.776Z"/>
                <path d="M322.261,254.465C322.261,254.465 334.885,261.543 342.2,268.991C349.515,276.439 346.399,283.895 346.399,283.895L319.195,307.214L313.451,282.181L322.261,254.465Z"/>
                <path d="M551.061,279.322C551.061,279.322 542.324,284.805 544.364,290.057C546.404,295.309 563.788,295.05 563.788,295.05L568.899,300.462L568.01,311.069L580.687,323.824L589.54,332.722C589.54,332.722 603.463,305.689 601.94,290.064C600.418,274.44 600.073,257.091 593.573,255.48C587.072,253.87 551.061,279.322 551.061,279.322Z"/>
            </g>
            <path d="M231.367,624.483C226.958,623.394 224.633,620.512 224.633,620.512C223.256,620.086 222.245,618.908 222.033,617.482C222.033,617.482 220.597,607.563 224.406,599.544C225.917,596.364 227.931,594.738 229.878,593.894C231.437,593.218 233.013,593.074 234.424,593.183L234.881,587.431C235.091,585.359 235.29,580.822 244.819,578.799C262.223,575.104 261.994,574.154 283.492,574.094C304.704,574.035 324.862,576.921 324.862,576.921C325.723,577.044 326.514,577.381 327.18,577.877C327.528,577.488 327.945,577.149 328.425,576.88C338.369,571.302 344.348,557.787 349.718,549.652C285.532,530.077 262.772,496.664 253.637,481.134C250.746,476.221 249.488,472.542 249.171,470.82L249.008,468.488L249.308,466.691L250.445,464.153L252.079,462.186L254.186,460.656L254.785,460.413C250.69,452.271 245.108,440.819 242.399,433.686C240.504,428.699 240.226,424.819 240.571,423.325C241.151,420.812 243.212,417.71 247.101,414.775C251.662,411.333 259.694,407.119 265.925,400.774C269.636,396.995 271.094,392.312 272.445,387.032C274.203,380.157 275.599,372.39 278.85,363.867C285.558,346.281 290.384,339.376 290.384,339.376C290.892,338.635 291.527,337.993 292.259,337.479C292.268,337.368 292.314,336.589 291.957,335.701C288.85,327.974 277.534,298.274 275.474,275.268C274.189,260.917 278.224,238.733 286.31,221.602C292.273,208.969 300.617,199.204 309.988,195.73C313.64,194.376 318.204,194.336 323.395,195.885C329.032,197.567 335.749,201.222 342.796,206.109C367.812,223.462 398.033,256.619 398.033,256.619C398.207,256.811 398.37,257.009 398.521,257.213C407.074,255.384 418.766,253.685 434.368,252.879L433.957,252.326C432.309,250.107 424.649,246.408 425.826,243.907C427.002,241.406 436.824,240.509 439.584,240.364C439.584,240.364 455.058,239.556 469.529,244.032C479.308,247.056 493.268,257.407 501.018,263.563C506.749,257.269 517.142,246.201 530.057,233.968C542.558,222.128 563.238,211.034 581.539,205.105C594.748,200.826 606.841,199.411 614.306,201.398C622.618,203.611 629.943,211.494 635.004,223.984C641.213,239.311 644.612,261.994 645.172,285.815C645.938,318.401 631.588,344.542 625.872,353.621C626.878,356.224 628.596,360.42 631.299,366.336C634.497,373.332 640.385,392.405 646.231,408.707C649.733,418.469 653.049,427.201 655.828,430.783C657.852,433.392 659.789,434.145 661.248,434.734C662.853,435.382 664.207,436.015 665.318,436.805C668.347,438.959 671.236,442.135 669.934,451.554C669.294,456.185 666.191,461.811 661.709,467.175C658.106,471.488 653.667,475.733 649.743,479.198L650.372,479.472C652.619,480.45 654.247,482.465 654.73,484.868C655.214,487.272 654.493,489.759 652.799,491.531C652.799,491.531 626.996,518.426 614.297,527.178C608.292,531.316 592.341,542.904 563.127,552.135C566.239,558.587 570.396,568.207 574.022,579.983C574.105,577.872 575.035,575.863 576.6,574.433C577.601,571.939 578.698,569.399 579.901,566.824C590.779,543.541 621.551,527.146 643.933,522.525C655.102,520.219 664.385,521.124 669.211,524.068C683.337,532.686 706.715,544.956 707.466,579.643C707.833,596.547 710.039,612.735 704.001,633.646C703.901,634.731 703.578,635.766 703.072,636.696C697.164,655.122 684.771,677.25 659.434,706.564C636.11,733.548 613.427,742.678 594.812,744.274C578.886,745.641 565.719,741.443 557.086,737.384C555.762,751.847 553.197,776.088 549.815,790.182C548.106,797.308 545.651,802.275 543.656,804.169C540.032,807.609 534.201,810.401 526.801,812.268C517.491,814.616 505.438,815.711 493.074,816.018C479.317,816.361 468.043,813.753 461.466,809.092C455.342,804.753 452.363,798.79 453.177,791.381C454.166,782.383 460.098,776.574 465.012,773.244C463.906,769.975 462.491,765.529 461.001,760.165C459.344,754.198 458.388,748.757 457.842,744.72L439.863,744.468C439.945,752.572 439.859,765.501 438.796,776.152C437.941,784.728 436.172,791.966 433.939,795.404C430.615,800.523 423.972,804.189 414.951,806.06C404.606,808.206 390.74,808.369 377.468,808.674C350.579,809.292 336.041,799.762 335.296,783.735C334.784,772.741 341.724,763.698 346.288,758.983C343.493,747.094 336.188,712.442 335.495,672.466L332.658,696.802C332.617,698.232 332.284,708.219 330.832,715.751C330.017,719.98 328.681,723.485 327.181,725.115C325.759,726.661 322.694,728.575 318.463,730.319C309.784,733.895 295.854,737.21 283.545,736.88C271.096,736.548 258.235,732.449 250.975,728.278C247.017,726.005 244.61,723.449 243.875,721.493C242.045,716.617 240.135,694.657 240.019,693.307C239.427,693.174 238.843,692.971 238.274,692.697C232.511,689.915 227.57,682.767 225.522,663.888C224.469,654.181 226.708,648.469 229.015,645.148C230.162,643.496 231.379,642.354 232.418,641.581L231.904,629.043C231.868,628.461 231.905,627.061 231.367,624.483ZM233.673,600.583C233.409,600.599 233.135,600.656 232.862,600.775C232.218,601.054 231.681,601.709 231.181,602.762C229.293,606.737 229.134,611.331 229.25,614.038C236.312,615.982 257.955,621.339 280.549,620.867C299.929,620.462 317.913,618.826 328.068,616.315C330.035,615.828 331.681,615.317 332.941,614.764C333.511,614.515 334.233,614.05 334.35,613.973C335.18,612.741 335.119,610.842 335.008,609.04C334.861,606.652 334.354,604.343 334.019,603.022L333.267,602.46C333.169,604.598 331.719,606.506 329.574,607.114C329.574,607.114 301.277,615.075 283.809,614.905C266.506,614.737 245.048,609.762 245.048,609.762C242.519,609.215 233.167,605.568 233.428,602.994L233.673,600.583ZM331.406,592.376C332.063,592.441 332.712,592.68 333.279,593.105L339.537,597.784C340.173,598.259 340.641,598.923 340.875,599.681C340.875,599.681 342.699,605.642 342.537,610.983C342.522,611.455 342.492,611.922 342.444,612.382C348.051,589.156 354.987,573.657 354.987,573.657C356.672,569.888 361.1,568.196 364.868,569.881C368.637,571.566 370.328,575.994 368.643,579.763C368.643,579.763 349.946,621.619 350.418,669.655C350.895,718.361 361.824,759.525 361.824,759.525C361.834,759.562 361.843,759.599 361.852,759.636C365.829,759.569 370.246,761.141 376.141,763.31C378.084,764.024 389.288,770.106 387.958,774.094C387.303,776.057 384.456,776.405 382.514,775.691C375.954,773.278 356.411,774.211 356.377,774.235C356.377,774.235 349.814,773.908 350.239,783.04C350.397,786.452 352.269,788.835 355.38,790.439C356.402,784.751 361.255,779.715 361.255,779.715C362.291,777.924 364.86,777.111 366.651,778.148C368.443,779.184 366.016,780.608 364.98,782.4C364.98,782.4 363.083,788.001 362.618,792.71C362.671,792.744 362.731,792.781 362.797,792.821C366.686,793.551 371.255,793.821 376.425,793.732C376.334,792.898 376.265,792.051 376.228,791.216C376.113,788.594 377.038,785.745 377.729,783.893C378.452,781.954 383.097,781.442 383.09,784.838C383.087,786.45 383.64,790.602 383.86,792.744C383.889,793.022 383.92,793.299 383.954,793.574C394.066,793.357 404.079,793.037 411.912,791.412C416.201,790.523 419.813,789.69 421.393,787.257C422.837,785.034 423.358,780.213 423.911,774.667C425.041,763.337 424.998,749.292 424.875,742.018C416.425,740.482 405.926,738.271 399.373,735.798C396.274,734.629 394.707,731.163 395.876,728.064C397.046,724.964 400.512,723.397 403.611,724.567C409.97,726.966 420.318,729.073 428.355,730.485C429.545,729.764 430.923,729.382 432.339,729.401L464.721,729.855C468.684,729.911 471.916,733.049 472.088,737.009C472.088,737.009 472.486,745.619 475.415,756.161C478.133,765.945 480.565,772.419 481.067,773.725C486.078,773.173 493.144,772.99 498.239,775.281C500.126,776.13 500.97,778.352 500.121,780.239C499.272,782.127 497.05,782.97 495.163,782.121C490.611,780.074 484.069,780.664 480.123,781.308C479.225,782.467 477.997,783.347 476.583,783.82C476.583,783.82 468.806,786.109 468.047,793.015C467.78,795.445 469.653,796.872 472.129,798.042C472.78,798.349 473.469,798.632 474.195,798.89C474.835,794.399 476.58,789.423 476.58,789.423C477.267,787.47 479.41,786.443 481.362,787.13C483.315,787.817 484.342,789.96 483.655,791.912C483.655,791.912 482.543,795.072 481.885,798.405C481.741,799.131 481.6,799.866 481.508,800.562C484.883,801.01 488.655,801.164 492.702,801.064C492.766,801.062 492.831,801.06 492.895,801.059L494.79,791.257C495.183,789.224 497.151,787.894 499.183,788.286C501.215,788.679 502.546,790.648 502.154,792.68L500.594,800.751C508.899,800.287 516.742,799.378 523.142,797.763C527.326,796.707 530.826,795.498 533.017,793.626C533.351,792.601 535.775,785.067 536.948,778.473C540.522,758.379 542.808,729.201 543.131,724.942L542.951,724.993L538.927,724.879C537.743,724.668 536.471,724.288 535.11,723.67C529.06,720.925 520.019,719.009 513.531,715.13C507.196,711.341 502.861,706.006 502.331,698.262C501.463,685.588 507.938,637.901 505.955,621.448C505.461,617.35 504.36,602.937 508.458,602.443C512.557,601.949 517.814,617.282 519.16,639.053C520.193,655.758 516.378,684.439 517.255,697.241C517.493,700.72 520.625,702.184 523.781,703.622C525.36,704.342 527.022,704.984 528.702,705.581C528.531,705.177 526.992,705.321 526.826,704.89C521.798,691.811 526.789,688.226 526.789,688.226C528.117,686.639 530.484,686.43 532.071,687.758C533.658,689.087 533.019,692.24 533.019,692.24C533.019,692.24 532.974,695.855 535.197,701.636C536.835,705.895 538.956,708.362 540.408,709.663C540.534,709.715 543.677,709.848 544.911,709.184C546.021,708.586 547.85,706.938 547.807,705.677C547.735,703.498 544.974,698.445 544.881,695.454C544.816,693.385 545.19,688.698 547.259,688.633C549.328,688.569 551.704,699.426 554.038,701.368C555.91,702.925 560.642,702.688 561.262,700.285C563.364,692.124 566.059,630.541 566.325,625.517C566.289,624.423 566.237,621.325 566.578,616.701C566.263,616.005 566.048,615.249 565.955,614.45C562.858,587.796 553.182,565.949 548.3,556.289C516.469,564.127 472.177,568.437 412.576,560.792C394.56,558.481 378.43,555.244 364.007,551.364C361.524,555.167 355.711,567.521 348.464,576.483C340.621,586.182 331.406,592.376 331.406,592.376ZM341.526,616.31C341.222,617.079 340.846,617.787 340.396,618.415C340.183,618.711 339.923,619.014 339.612,619.316C340.022,619.587 340.374,619.935 340.649,620.338C340.935,618.974 341.228,617.631 341.526,616.31ZM333.773,622.468C332.619,622.86 331.314,623.238 329.868,623.595C319.361,626.194 301.344,629.6 281.291,630.02C265.465,630.35 250.508,628.173 239.872,625.939L242.365,641.638C242.853,642.151 243.48,643.272 244.454,643.421C244.454,643.421 260.756,645.908 282.359,645.752C303.914,645.597 321.836,640.552 329.923,638.594C330.595,638.431 331.269,638.461 331.887,638.648L333.773,622.468ZM382.468,261.925C373.458,252.429 352.427,231.046 334.246,218.435C329.546,215.174 325.075,212.515 321.098,210.952C318.742,210.027 316.768,209.214 315.202,209.795C308.842,212.152 303.921,219.431 299.875,228.004C292.95,242.676 289.314,261.639 290.414,273.93C291.858,290.053 298.262,309.691 302.568,321.468C303.991,319.314 305.922,316.681 308.796,313.115C308.422,312.645 308.12,312.104 307.912,311.505C307.912,311.505 303.805,299.939 304.234,280.272C304.676,260.002 311.604,249.077 311.604,249.077C313.155,246.56 316.414,245.731 318.97,247.163C320.53,247.638 329.953,250.829 340.137,261.288C350.141,271.561 355.856,277.862 355.856,277.862C357.318,279.474 357.693,281.796 356.811,283.785C356.105,285.379 354.7,286.52 353.05,286.91C353.05,286.91 342.21,291.194 325.957,309.837C311.238,326.72 310.05,330.093 307.27,335.6C307.533,338.283 307.108,340.533 306.466,342.371C305.762,344.383 304.734,345.963 303.751,347.131L302.537,348.202C301.615,349.686 297.9,356.013 292.865,369.213C289.845,377.13 288.61,384.363 286.977,390.749C284.935,398.732 282.238,405.572 276.627,411.285C271.201,416.809 264.638,420.996 259.542,424.383C258.308,425.203 256.903,426.257 255.913,427.02C259.392,437.361 272.991,463.063 272.991,463.063C274.306,465.569 274.098,468.602 272.453,470.906C271.125,472.766 269.043,473.894 266.818,474.034C277.327,491.735 315.384,533.202 414.484,545.914C473.73,553.514 517.042,548.821 547.51,540.888C547.675,540.77 547.846,540.658 548.023,540.552C549.449,539.697 551.044,539.366 552.584,539.504C583.268,530.757 599.784,518.963 605.785,514.827C613.493,509.515 626.293,497.065 634.418,488.886L632.521,488.06C630.066,486.992 628.368,484.696 628.063,482.037C627.758,479.378 628.894,476.758 631.043,475.162C631.043,475.162 639.66,468.765 646.887,461.236C650.752,457.208 654.58,453.084 655.075,449.501C655.121,449.17 655.154,448.808 655.178,448.466C654.472,448.169 653.646,447.808 652.974,447.476C650.296,446.152 647.186,444.114 643.977,439.978C641.415,436.676 638.227,429.934 635.043,421.676C628.465,404.616 621.302,380.548 617.657,372.571C612.141,360.503 610.382,354.898 610.382,354.898C609.655,352.613 610.065,350.118 611.485,348.186C611.485,348.186 631.008,321.521 630.176,286.168C629.665,264.395 626.777,243.626 621.101,229.616C618.231,222.533 615.16,217.148 610.446,215.893C604.893,214.415 595.989,216.191 586.162,219.375C569.913,224.639 551.471,234.346 540.373,244.858C521.013,263.195 507.494,278.825 507.494,278.825C506.188,280.336 504.334,281.263 502.342,281.402C500.35,281.541 498.384,280.879 496.882,279.564C496.882,279.564 476.213,264.681 465.097,258.362C453.068,251.524 453.311,254.339 452.32,255.257C452.32,255.257 454.922,257.314 458.605,260.353C466.652,266.992 465.588,274.782 465.588,274.782L431.903,263.795C386.933,264.804 378.12,277.77 375.934,274.255C373.747,270.741 379.571,263.115 382.468,261.925ZM692.995,606.633C693.419,597.355 692.701,588.769 692.511,579.967C691.919,552.633 672.552,543.63 661.42,536.839C660.3,536.156 658.575,536.087 656.517,536.075C651.585,536.047 645.293,537.246 638.557,539.408C623.177,544.347 605.383,554.26 596.287,568.105C610.077,565.237 629.885,563.305 647.062,569.974C666.385,577.475 682.754,591.703 692.995,606.633ZM580.823,633.848C580.611,637.4 580.335,641.922 580.015,646.93C584.527,648.565 592.645,651.997 600.048,657.675C608.099,663.85 615.163,672.579 617.081,684.042C619.513,698.576 620.74,711.666 619.138,721.268C628.017,716.362 637.365,708.942 646.926,698.142C646.616,697.039 646.517,695.857 646.671,694.65C648.691,678.827 643.412,658.191 624.191,640.987C608.359,626.817 586.44,632.154 580.823,633.848ZM578.764,665.389C577.674,680.472 576.42,695.013 575.413,698.921C573.945,704.622 571.508,709.771 568.601,712.91C567.552,714.044 566.427,714.969 565.258,715.685L563.122,716.75L560.689,717.432L558.083,717.609L555.492,717.244L554.314,716.836C554.001,717.261 553.689,717.684 553.434,718.027C554.089,718.292 554.713,718.652 555.282,719.105C555.282,719.105 570.871,731.314 593.533,729.37C593.91,729.338 594.288,729.301 594.668,729.261C595.433,727.614 596.713,726.189 598.428,725.253C601.453,723.601 601.84,719.686 602.171,714.976C602.715,707.248 601.498,697.552 599.723,686.947C598.593,680.192 594.081,675.278 589.337,671.639C585.74,668.88 581.92,666.826 578.764,665.389ZM663.84,677.242C676.66,659.921 683.991,645.673 688.112,633.258C684.708,615.844 665.511,594.146 641.323,584.756C621.191,576.94 596.724,583.655 588.059,586.527C583.983,598.431 582.332,608.718 581.676,615.677C593.946,613.328 617.771,611.622 635.928,627.873C653.183,643.317 661.373,661.041 663.84,677.242ZM248.078,699.408C248.714,706.147 249.787,715.899 250.897,718.857C251.004,719.143 251.334,719.38 251.698,719.702C252.467,720.381 253.491,721.075 254.71,721.775C261.179,725.491 272.653,729.087 283.745,729.383C294.978,729.684 307.686,726.647 315.606,723.384C318.489,722.196 320.693,721.091 321.662,720.037C322.555,719.066 322.982,716.85 323.467,714.332C324.81,707.364 325.118,698.147 325.159,696.66C315.961,699.301 296.564,702.799 279.763,702.862C265.416,702.916 253.747,700.719 248.078,699.408ZM326.08,688.466L331.024,646.045C322.358,648.173 304.169,653.095 282.413,653.252C266.504,653.367 253.384,652.086 247.18,651.343C248.864,654.112 250.311,657.195 250.934,660.287C251.892,665.042 251.304,668.082 250.425,670.032C251.867,671.462 253.263,673.577 254.028,676.68C255.175,681.329 252.584,687.432 248.625,690.767C248.284,691.055 247.936,691.321 247.581,691.565C251.226,692.516 263.701,695.423 279.735,695.362C298.613,695.291 321.047,690.83 326.08,688.466ZM317.117,303.239C317.298,303.031 317.481,302.821 317.666,302.609C328.691,289.962 337.127,283.328 342.707,279.869C340.128,277.128 336.604,273.427 332.256,268.962C327.043,263.609 322.142,260.618 319.057,259.082C317.474,263.279 315.449,270.526 315.231,280.512C315.005,290.867 316.16,298.665 317.117,303.239ZM244.289,589.694C241.735,596.773 244.114,601.967 244.114,601.967C252.637,603.662 268.685,605.608 281.168,605.73C293.387,605.848 314.689,603.497 322.974,601.366C323.531,599.108 324.171,595.042 319.873,586.525C319.873,586.525 301.575,583.223 286.381,583.265C270.966,583.308 246.684,583.057 244.289,589.694ZM274.953,588.554C279.734,588.464 310.345,588.23 310.47,589.985C310.596,591.74 298.481,594.885 288.522,594.657C277.759,594.411 266.176,594.184 266.083,592.528C265.991,590.873 265.356,588.734 274.953,588.554ZM558.896,702.595L559.076,702.682C559.019,702.644 558.958,702.616 558.896,702.595ZM459.397,434.467C458.068,433.344 457.291,431.611 457.466,429.749C457.749,426.727 460.433,424.503 463.455,424.786C463.455,424.786 533.151,431.329 539.075,431.521C542.109,431.619 544.493,434.161 544.395,437.195C544.386,437.459 544.359,437.719 544.315,437.972C544.34,438.197 544.35,438.428 544.342,438.661C544.154,444.489 542.62,457.811 532.175,467.03C525.371,473.035 514.705,477.482 497.773,476.484C490.425,476.051 484.49,474.397 479.685,471.987C493.228,488.805 505.768,489.305 505.768,489.305C507.837,489.334 509.494,491.037 509.465,493.107C509.436,495.176 507.732,496.833 505.663,496.804C505.663,496.804 489.38,496.918 472.705,475.244C465.335,465.664 462.204,455.704 460.99,447.641C459.655,442.346 459.39,437.53 459.397,434.467ZM534.547,442.233C530.445,441.913 523.935,441.351 516.466,440.688L516.611,441.428L517.02,442.233L517.22,443.295L517.215,444.245C517.107,445.477 516.415,447.555 514.375,450.616C510.424,456.542 506.296,458.855 502.786,459.499C499.709,460.063 496.939,459.361 494.722,458.186C490.448,456.882 487.069,453.754 484.808,450.147C482.131,445.876 481.214,440.918 481.974,437.553C476.819,437.078 472.266,436.655 468.854,436.338C468.998,441.86 470.341,451.654 477.352,458.736C481.747,463.176 488.412,466.416 498.332,467.001C511.836,467.797 520.462,464.697 525.888,459.908C531.958,454.551 533.905,447.302 534.547,442.233ZM348.789,470.519C347.091,470.8 345.296,470.96 343.401,470.987C329.81,471.175 320.98,467.495 315.156,462.304C306.371,454.473 304.241,442.757 303.995,433.149C303.987,432.836 304.005,432.529 304.048,432.229C301.955,431.507 300.419,429.554 300.341,427.211C300.24,424.177 302.621,421.632 305.655,421.531C305.655,421.531 360.009,419.728 366.469,419.921L368.007,420.138L369.401,420.654L371.057,421.763L372.231,423.022C373.75,425.004 375.079,428.921 375.228,433.917C375.451,441.351 373.35,451.316 367.614,459.042C362.287,469.817 352.653,480.461 335.273,485.142C333.275,485.68 331.215,484.494 330.677,482.496C330.139,480.497 331.324,478.438 333.323,477.9C339.574,476.216 344.657,473.634 348.789,470.519ZM322.495,431.993C319.74,432.079 317.18,432.161 314.938,432.233C314.968,432.441 314.986,432.652 314.991,432.867C315.169,439.794 316.142,448.447 322.476,454.093C326.731,457.886 333.317,460.125 343.249,459.988C359.908,459.757 364.517,443.713 364.233,434.246C364.201,433.155 363.961,431.848 363.755,430.907C362.563,430.916 361.056,430.939 359.306,430.972L359.594,431.415C360.282,432.842 360.415,435.042 359.742,437.525C358.601,441.734 355.291,447.104 353.877,448.518C350.009,452.386 346.135,453.987 342.562,454.242C334.44,454.821 327.346,447.99 324.121,441.488C322.638,438.496 321.996,435.607 322.135,433.601L322.495,431.993ZM563.026,300.28C562.077,300.013 560.714,299.661 559.609,299.495C552.076,298.366 541.576,298.585 541.576,298.585C539.444,298.628 537.479,297.433 536.535,295.52C535.592,293.607 535.839,291.321 537.17,289.655C570.013,248.524 593.567,248.916 593.567,248.916C596.016,248.884 598.191,250.476 598.902,252.82C598.902,252.82 607.178,280.352 606.134,299.458C605.045,319.407 593.367,335.549 593.367,335.549C592.253,337.089 590.423,337.945 588.527,337.812C586.632,337.68 584.938,336.579 584.049,334.899C584.049,334.899 580.555,328.379 573.709,323.009C566.738,317.542 561.805,315.688 561.805,315.688C560.151,315.091 558.882,313.739 558.391,312.05C557.9,310.361 558.246,308.54 559.322,307.149C559.322,307.149 560.961,305.025 562.21,302.502C562.51,301.895 562.815,300.975 563.026,300.28ZM553.114,287.836C555.845,287.991 558.696,288.236 561.24,288.617C566.151,289.354 570.055,290.961 571.695,292.63L573.173,294.633L574.004,296.8C574.42,298.492 574.386,300.445 573.905,302.477C573.448,304.41 572.534,306.461 571.56,308.282C573.999,309.681 577.056,311.655 580.497,314.354C583.775,316.925 586.448,319.708 588.514,322.193C591.32,316.647 594.637,308.257 595.151,298.858C595.855,285.975 591.879,268.934 589.711,260.77C583.478,262.658 570.351,268.683 553.114,287.836ZM389.755,528.453C388.051,530.965 384.628,531.621 382.116,529.917C379.604,528.214 378.947,524.791 380.651,522.279C380.651,522.279 388.266,510.664 404.907,510.435C420.34,510.223 435.568,524.794 435.568,524.794C437.735,526.919 437.769,530.404 435.644,532.572C433.518,534.739 430.033,534.773 427.866,532.647C427.866,532.647 416.643,521.275 405.058,521.434C394.678,521.576 389.755,528.453 389.755,528.453ZM384.324,478.265C384.033,475.617 385.181,472.781 388.177,470.404C392.596,466.898 402.596,464.274 419.279,468.373C424.704,469.707 428.138,473.158 429.448,476.937C430.868,481.032 429.956,485.671 426.097,489.176C422.09,492.814 414.213,495.384 401.576,492.974C394.512,491.626 390.204,489.597 387.741,487.504C385.436,485.544 384.424,483.393 384.162,481.316C384.033,480.297 384.096,479.272 384.324,478.265ZM244.658,674.569L243.339,667.331C243.339,667.331 243.717,666.756 243.832,666.081C244.012,665.028 243.957,663.629 243.582,661.769C242.527,656.536 238.437,651.384 235.872,648.571C234.221,650.448 232.058,654.597 232.978,663.079C233.83,670.937 235.083,676.43 236.77,680.237C238.104,683.249 239.638,685.027 241.535,685.943C242.305,686.315 243.059,685.65 243.793,685.032C245.68,683.442 247.293,680.691 246.747,678.475C246.011,675.492 243.674,674.437 243.674,674.437L244.658,674.569Z"/>
        </g>
    </g>
</svg>
