<?xml version="1.0" encoding="UTF-8" standalone="no"?>
<!DOCTYPE svg PUBLIC "-//W3C//DTD SVG 1.1//EN" "http://www.w3.org/Graphics/SVG/1.1/DTD/svg11.dtd">
<svg width="100%" height="100%" viewBox="0 0 992 157" version="1.1" xmlns="http://www.w3.org/2000/svg" xmlns:xlink="http://www.w3.org/1999/xlink" xml:space="preserve" xmlns:serif="http://www.serif.com/" style="fill-rule:evenodd;clip-rule:evenodd;stroke-linejoin:round;stroke-miterlimit:2;">
    <g transform="matrix(1,0,0,1,-902.462,-1005.65)">
        <g>
            <path d="M954.354,1159.79C946.267,1159.79 940.779,1156.14 937.89,1148.85C935.002,1141.56 933.558,1131.27 933.558,1117.98C933.558,1094.73 934.641,1072.41 936.807,1051.04L949.155,1046.71C940.057,1048.44 932.474,1049.31 926.409,1049.31C919.621,1049.31 914.349,1047.97 910.594,1045.3C906.839,1042.63 904.962,1038.12 904.962,1031.76C904.962,1022.23 909.908,1015.91 919.801,1012.81C929.694,1009.7 943.306,1008.15 960.637,1008.15C971.902,1008.15 981,1008.65 987.932,1009.66C994.865,1010.67 1000.43,1012.99 1004.61,1016.6C1008.8,1020.21 1010.9,1025.77 1010.9,1033.28C1010.9,1039.2 1009.2,1043.49 1005.81,1046.17C1002.41,1048.84 997.97,1050.17 992.482,1050.17C987.571,1050.17 983.636,1050.07 980.675,1049.85C977.715,1049.63 975.296,1049.09 973.418,1048.22C974.429,1055.01 975.259,1066.42 975.909,1082.45C976.559,1098.48 976.884,1110.61 976.884,1118.85C976.884,1129.25 976.306,1137.3 975.151,1143C973.996,1148.71 971.793,1152.93 968.544,1155.67C965.294,1158.42 960.564,1159.79 954.354,1159.79Z" style="fill:white;fill-rule:nonzero;stroke:rgb(124,5,139);stroke-width:5px;"/>
            <path d="M1030.18,1159.79C1022.52,1159.79 1016.82,1157.66 1013.06,1153.4C1009.31,1149.14 1006.56,1139.97 1004.83,1125.89C1003.1,1111.81 1002.23,1089.6 1002.23,1059.27C1002.23,1040.64 1005.48,1027.46 1011.98,1019.74C1018.48,1012.01 1027.72,1008.15 1039.71,1008.15C1075.67,1008.15 1093.65,1025.12 1093.65,1059.06C1093.65,1069.74 1091.59,1078.77 1087.48,1086.13C1083.36,1093.5 1077.98,1099.06 1071.34,1102.82C1077.26,1109.32 1082.24,1116.07 1086.28,1123.07C1090.33,1130.08 1092.35,1136.76 1092.35,1143.11C1092.35,1147.01 1091.09,1150.76 1088.56,1154.37C1086.03,1157.99 1081.81,1159.79 1075.89,1159.79C1072.13,1159.79 1067.98,1157.08 1063.43,1151.67C1058.88,1146.25 1054.84,1139.57 1051.3,1131.63C1047.76,1123.68 1045.49,1116.17 1044.47,1109.1C1045.34,1124.7 1045.77,1134.23 1045.77,1137.69C1045.77,1144.05 1044.76,1149.32 1042.74,1153.51C1040.72,1157.7 1036.53,1159.79 1030.18,1159.79ZM1031.91,1040.42C1031.91,1041.29 1032.27,1041.8 1032.99,1041.94C1037.61,1045.41 1042.52,1049.74 1047.72,1054.94C1043.39,1061.58 1039.85,1067.58 1037.11,1072.92C1036.82,1073.35 1036.67,1074 1036.67,1074.87C1036.67,1076.03 1037.11,1076.6 1037.97,1076.6C1038.99,1076.6 1039.92,1075.95 1040.79,1074.65L1050.54,1057.76L1064.19,1071.62C1064.91,1072.34 1065.63,1072.7 1066.35,1072.7C1066.79,1072.7 1067.18,1072.56 1067.55,1072.27C1067.91,1071.98 1068.09,1071.62 1068.09,1071.19C1068.09,1070.61 1067.8,1069.82 1067.22,1068.8L1052.49,1054.29C1056.82,1046.49 1060.43,1041.08 1063.32,1038.04C1063.46,1037.61 1063.54,1037.03 1063.54,1036.31C1063.54,1036.02 1063.39,1035.77 1063.1,1035.55C1062.82,1035.33 1062.45,1035.23 1062.02,1035.23C1061.44,1035.23 1060.79,1035.59 1060.07,1036.31C1058.77,1037.9 1055.23,1043.1 1049.46,1051.91C1046.86,1049.31 1044.18,1046.78 1041.44,1044.33C1038.7,1041.87 1036.67,1040.28 1035.38,1039.56C1034.94,1039.12 1034.29,1038.91 1033.42,1038.91C1032.99,1038.91 1032.63,1039.09 1032.34,1039.45C1032.05,1039.81 1031.91,1040.14 1031.91,1040.42Z" style="fill:white;fill-rule:nonzero;stroke:rgb(124,5,139);stroke-width:5px;"/>
            <path d="M1105.13,1159.79C1097.91,1159.79 1092.75,1156.61 1089.64,1150.26C1086.54,1143.9 1084.98,1135.6 1084.98,1125.35C1084.98,1116.54 1085.78,1107.29 1087.37,1097.62C1088.96,1087.94 1091.05,1079.06 1093.65,1070.97C1106.65,1029.09 1121.38,1008.15 1137.84,1008.15C1146.08,1008.15 1152.83,1011.4 1158.1,1017.89C1163.37,1024.39 1168.1,1032.99 1172.29,1043.67C1181.53,1066.64 1186.15,1091.26 1186.15,1117.55C1186.15,1130.4 1184.02,1140.65 1179.76,1148.31C1175.5,1155.96 1169.9,1159.79 1162.97,1159.79C1157.05,1159.79 1152.14,1158.42 1148.24,1155.67C1144.34,1152.93 1142.39,1148.6 1142.39,1142.68C1142.39,1138.06 1142.83,1133.58 1143.69,1129.25C1149.18,1126.79 1154.09,1122.89 1158.42,1117.55C1154.52,1121.16 1150.88,1123.58 1147.48,1124.8C1144.09,1126.03 1140.08,1126.64 1135.46,1126.64C1132.43,1126.64 1128.67,1125.89 1124.19,1124.37C1119.72,1122.85 1116.11,1121.3 1113.36,1119.71C1115.24,1122.17 1117.41,1123.94 1119.86,1125.02C1122.32,1126.1 1124.34,1126.64 1125.93,1126.64C1125.93,1136.47 1124.85,1143.8 1122.68,1148.63C1120.51,1153.47 1117.99,1156.54 1115.1,1157.84C1112.21,1159.14 1108.89,1159.79 1105.13,1159.79ZM1117.91,1059.27C1117.91,1060.14 1118.27,1060.64 1119,1060.79C1123.62,1064.26 1128.53,1068.59 1133.73,1073.79C1128.96,1081.15 1125.42,1087.15 1123.11,1091.77C1122.82,1092.2 1122.68,1092.85 1122.68,1093.72C1122.68,1094.87 1123.11,1095.45 1123.98,1095.45C1124.99,1095.45 1125.93,1094.8 1126.79,1093.5L1136.54,1076.6L1150.19,1090.47C1150.91,1091.19 1151.63,1091.55 1152.36,1091.55C1152.79,1091.55 1153.19,1091.41 1153.55,1091.12C1153.91,1090.83 1154.09,1090.47 1154.09,1090.03C1154.09,1089.46 1153.8,1088.66 1153.22,1087.65L1138.49,1073.14C1142.83,1065.34 1146.44,1059.92 1149.32,1056.89C1149.47,1056.46 1149.54,1055.88 1149.54,1055.16C1149.54,1054.87 1149.4,1054.62 1149.11,1054.4C1148.82,1054.18 1148.46,1054.07 1148.03,1054.07C1147.45,1054.07 1146.8,1054.43 1146.08,1055.16C1144.78,1056.75 1141.24,1061.94 1135.46,1070.75C1132.86,1068.15 1130.19,1065.63 1127.44,1063.17C1124.7,1060.72 1122.68,1059.13 1121.38,1058.41C1120.94,1057.97 1120.3,1057.76 1119.43,1057.76C1119,1057.76 1118.63,1057.94 1118.35,1058.3C1118.06,1058.66 1117.91,1058.98 1117.91,1059.27Z" style="fill:white;fill-rule:nonzero;stroke:rgb(124,5,139);stroke-width:5px;"/>
            <path d="M1225.8,1159.79C1214.24,1159.79 1204.89,1157.59 1197.74,1153.18C1190.59,1148.78 1185.47,1143.51 1182.36,1137.37C1179.26,1131.23 1177.7,1125.56 1177.7,1120.36C1177.7,1111.99 1179.4,1105.41 1182.79,1100.65C1186.19,1095.88 1191.28,1091.91 1198.07,1088.74C1201.82,1091.33 1205.54,1093.18 1209.22,1094.26C1212.91,1095.34 1217.42,1095.88 1222.76,1095.88C1225.65,1099.06 1227.82,1102.2 1229.26,1105.31C1230.71,1108.41 1232.08,1112.28 1233.38,1116.9C1231.79,1110.83 1231,1105.78 1231,1101.73C1231,1099.13 1231.21,1096.89 1231.64,1095.02L1246.16,1090.47C1241.83,1091.48 1238.11,1092.16 1235,1092.53C1231.9,1092.89 1227.89,1093.07 1222.98,1093.07C1215.61,1093.07 1208.39,1091.3 1201.32,1087.76C1194.24,1084.22 1188.5,1079.24 1184.09,1072.81C1179.69,1066.38 1177.49,1059.06 1177.49,1050.82C1177.49,1042.59 1179.8,1035.23 1184.42,1028.73C1189.04,1022.23 1195.03,1017.17 1202.4,1013.56C1209.77,1009.95 1217.28,1008.15 1224.93,1008.15C1232.15,1008.15 1238.87,1009.74 1245.08,1012.91C1251.29,1016.09 1256.2,1020.06 1259.81,1024.83C1263.42,1029.59 1265.22,1034.29 1265.22,1038.91C1265.22,1045.26 1264.07,1050.25 1261.76,1053.86C1259.45,1057.47 1256.05,1060.28 1251.58,1062.31C1242.62,1061.29 1234.32,1060.79 1226.66,1060.79C1221.61,1060.79 1216.99,1061.08 1212.8,1061.65C1235.62,1061.65 1252.05,1065.81 1262.08,1074.11C1272.12,1082.42 1277.14,1094.22 1277.14,1109.53C1277.14,1124.12 1273.09,1136.14 1265.01,1145.6C1256.92,1155.06 1243.85,1159.79 1225.8,1159.79Z" style="fill:white;fill-rule:nonzero;stroke:rgb(124,5,139);stroke-width:5px;"/>
            <path d="M1294.25,1159.79C1286.02,1159.79 1279.66,1153.76 1275.19,1141.7C1270.71,1129.64 1268.47,1110.9 1268.47,1085.49C1268.47,1059.63 1271.04,1040.28 1276.16,1027.43C1281.29,1014.57 1288.76,1008.15 1298.59,1008.15C1304.07,1008.15 1308.51,1010.28 1311.91,1014.54C1315.3,1018.8 1317,1024.9 1317,1032.84L1316.78,1050.39C1316.64,1053.28 1316.57,1057.76 1316.57,1063.82L1304.65,1073.57C1305.81,1072.99 1306.89,1072.34 1307.9,1071.62C1308.91,1070.9 1309.85,1070.32 1310.72,1069.89C1317.94,1065.41 1324,1063.17 1328.91,1063.17C1331.66,1063.17 1334.08,1063.5 1336.17,1064.15C1338.27,1064.8 1340.61,1065.7 1343.21,1066.86C1345.38,1067.87 1347.33,1068.66 1349.06,1069.24L1336.93,1060.79C1336.5,1057.47 1336.28,1053.06 1336.28,1047.57C1336.28,1036.31 1336.78,1028.15 1337.8,1023.1C1338.81,1018.04 1340.72,1014.28 1343.54,1011.83C1346.35,1009.37 1350.36,1008.15 1355.56,1008.15C1364.8,1008.15 1371.88,1014.79 1376.79,1028.08C1381.7,1041.36 1384.15,1059.63 1384.15,1082.88C1384.15,1105.13 1383.25,1121.77 1381.45,1132.82C1379.64,1143.87 1377.04,1151.12 1373.65,1154.59C1370.25,1158.06 1365.52,1159.79 1359.46,1159.79C1348.63,1159.79 1341.59,1155.35 1338.34,1146.47C1335.09,1137.59 1333.46,1125.85 1333.46,1111.26C1335.92,1110.4 1338.52,1109.24 1341.26,1107.8C1344.01,1106.35 1346.17,1104.91 1347.76,1103.47C1340.25,1106.5 1333.54,1108.02 1327.61,1108.02C1324.29,1108.02 1320.32,1107.08 1315.7,1105.2C1311.08,1103.32 1307.03,1101.3 1303.57,1099.13C1304.87,1101.3 1306.75,1103.29 1309.2,1105.09C1311.65,1106.9 1314.11,1108.23 1316.57,1109.1C1318.44,1119.93 1319.38,1130.4 1319.38,1140.51C1319.38,1143.4 1318.44,1146.32 1316.57,1149.28C1314.69,1152.24 1311.84,1154.74 1308.01,1156.76C1304.18,1158.78 1299.6,1159.79 1294.25,1159.79Z" style="fill:white;fill-rule:nonzero;stroke:rgb(124,5,139);stroke-width:5px;"/>
            <path d="M1450.88,1159.79C1443.51,1159.79 1437.48,1156.65 1432.79,1150.37C1428.1,1144.08 1424.59,1133.72 1422.28,1119.28C1419.97,1104.84 1418.82,1085.49 1418.82,1061.22C1418.82,1041.72 1422.17,1028.01 1428.89,1020.06C1435.61,1012.12 1445.17,1008.15 1457.59,1008.15C1494.71,1008.15 1513.27,1025.77 1513.27,1061.01C1513.27,1071.98 1511.17,1081.22 1506.99,1088.74C1502.8,1096.24 1497.45,1101.84 1490.95,1105.52C1484.46,1109.21 1477.74,1111.05 1470.81,1111.05C1465.03,1111.05 1459.98,1109.96 1455.64,1107.8C1457.81,1109.96 1460.09,1111.52 1462.47,1112.46C1464.85,1113.39 1467.13,1113.86 1469.29,1113.86C1473.48,1122.53 1475.57,1131.05 1475.57,1139.43C1475.57,1144.91 1473.55,1149.68 1469.51,1153.73C1465.46,1157.77 1459.26,1159.79 1450.88,1159.79ZM1451.96,1043.67C1451.96,1044.54 1452.32,1045.05 1453.04,1045.19C1457.67,1048.66 1462.58,1052.99 1467.78,1058.19C1463.44,1064.83 1459.9,1070.83 1457.16,1076.17C1456.87,1076.6 1456.73,1077.25 1456.73,1078.12C1456.73,1079.28 1457.16,1079.85 1458.03,1079.85C1459.04,1079.85 1459.98,1079.2 1460.84,1077.9L1470.59,1061.01L1484.24,1074.87C1484.96,1075.59 1485.68,1075.95 1486.41,1075.95C1486.84,1075.95 1487.24,1075.81 1487.6,1075.52C1487.96,1075.23 1488.14,1074.87 1488.14,1074.44C1488.14,1073.86 1487.85,1073.07 1487.27,1072.05L1472.54,1057.54C1476.87,1049.74 1480.49,1044.33 1483.37,1041.29C1483.52,1040.86 1483.59,1040.28 1483.59,1039.56C1483.59,1039.27 1483.44,1039.02 1483.16,1038.8C1482.87,1038.58 1482.51,1038.48 1482.07,1038.48C1481.5,1038.48 1480.85,1038.84 1480.12,1039.56C1478.82,1041.15 1475.29,1046.35 1469.51,1055.16C1466.91,1052.56 1464.24,1050.03 1461.49,1047.57C1458.75,1045.12 1456.73,1043.53 1455.43,1042.81C1454.99,1042.38 1454.34,1042.16 1453.48,1042.16C1453.04,1042.16 1452.68,1042.34 1452.39,1042.7C1452.11,1043.06 1451.96,1043.39 1451.96,1043.67Z" style="fill:white;fill-rule:nonzero;stroke:rgb(124,5,139);stroke-width:5px;"/>
            <path d="M1520.42,1159.79C1513.2,1159.79 1508.03,1156.61 1504.93,1150.26C1501.82,1143.9 1500.27,1135.6 1500.27,1125.35C1500.27,1116.54 1501.07,1107.29 1502.65,1097.62C1504.24,1087.94 1506.34,1079.06 1508.94,1070.97C1521.93,1029.09 1536.66,1008.15 1553.13,1008.15C1561.36,1008.15 1568.11,1011.4 1573.38,1017.89C1578.66,1024.39 1583.38,1032.99 1587.57,1043.67C1596.82,1066.64 1601.44,1091.26 1601.44,1117.55C1601.44,1130.4 1599.31,1140.65 1595.05,1148.31C1590.79,1155.96 1585.19,1159.79 1578.26,1159.79C1572.34,1159.79 1567.43,1158.42 1563.53,1155.67C1559.63,1152.93 1557.68,1148.6 1557.68,1142.68C1557.68,1138.06 1558.11,1133.58 1558.98,1129.25C1564.47,1126.79 1569.38,1122.89 1573.71,1117.55C1569.81,1121.16 1566.16,1123.58 1562.77,1124.8C1559.38,1126.03 1555.37,1126.64 1550.75,1126.64C1547.71,1126.64 1543.96,1125.89 1539.48,1124.37C1535,1122.85 1531.39,1121.3 1528.65,1119.71C1530.53,1122.17 1532.69,1123.94 1535.15,1125.02C1537.6,1126.1 1539.63,1126.64 1541.21,1126.64C1541.21,1136.47 1540.13,1143.8 1537.97,1148.63C1535.8,1153.47 1533.27,1156.54 1530.38,1157.84C1527.49,1159.14 1524.17,1159.79 1520.42,1159.79ZM1533.2,1059.27C1533.2,1060.14 1533.56,1060.64 1534.28,1060.79C1538.9,1064.26 1543.81,1068.59 1549.01,1073.79C1544.25,1081.15 1540.71,1087.15 1538.4,1091.77C1538.11,1092.2 1537.97,1092.85 1537.97,1093.72C1537.97,1094.87 1538.4,1095.45 1539.26,1095.45C1540.28,1095.45 1541.21,1094.8 1542.08,1093.5L1551.83,1076.6L1565.48,1090.47C1566.2,1091.19 1566.92,1091.55 1567.64,1091.55C1568.08,1091.55 1568.47,1091.41 1568.84,1091.12C1569.2,1090.83 1569.38,1090.47 1569.38,1090.03C1569.38,1089.46 1569.09,1088.66 1568.51,1087.65L1553.78,1073.14C1558.11,1065.34 1561.72,1059.92 1564.61,1056.89C1564.76,1056.46 1564.83,1055.88 1564.83,1055.16C1564.83,1054.87 1564.68,1054.62 1564.39,1054.4C1564.11,1054.18 1563.74,1054.07 1563.31,1054.07C1562.73,1054.07 1562.08,1054.43 1561.36,1055.16C1560.06,1056.75 1556.52,1061.94 1550.75,1070.75C1548.15,1068.15 1545.48,1065.63 1542.73,1063.17C1539.99,1060.72 1537.97,1059.13 1536.66,1058.41C1536.23,1057.97 1535.58,1057.76 1534.72,1057.76C1534.28,1057.76 1533.92,1057.94 1533.63,1058.3C1533.34,1058.66 1533.2,1058.98 1533.2,1059.27Z" style="fill:white;fill-rule:nonzero;stroke:rgb(124,5,139);stroke-width:5px;"/>
            <path d="M1616.39,1159.79C1609.45,1159.79 1604.29,1156.68 1600.9,1150.48C1597.5,1144.27 1595.3,1135.89 1594.29,1125.35C1593.28,1114.8 1592.77,1101.01 1592.77,1083.97C1592.77,1060.57 1594.94,1042.09 1599.27,1028.51C1603.61,1014.94 1610.47,1008.15 1619.85,1008.15C1625.34,1008.15 1630.47,1010.53 1635.23,1015.3C1640,1020.06 1644.19,1025.84 1647.8,1032.63C1651.41,1039.41 1655.6,1048.15 1660.36,1058.84C1661.09,1060.28 1662.53,1063.39 1664.69,1068.15C1666.86,1072.92 1668.85,1076.93 1670.65,1080.18C1672.46,1083.43 1674.15,1086.06 1675.74,1088.09L1665.56,1064.26L1665.56,1033.71C1665.56,1024.61 1667.15,1018.08 1670.33,1014.1C1673.51,1010.13 1678.34,1008.15 1684.84,1008.15C1688.74,1008.15 1692.24,1009.77 1695.35,1013.02C1698.45,1016.27 1700.37,1020.28 1701.09,1025.04C1702.39,1033.42 1703.87,1046.56 1705.53,1064.47C1707.19,1082.38 1708.02,1098.12 1708.02,1111.7C1708.02,1126.86 1705.82,1138.67 1701.41,1147.12C1697.01,1155.57 1691.49,1159.79 1684.84,1159.79C1676.47,1159.79 1668.34,1153.69 1660.47,1141.49C1652.6,1129.28 1646.07,1116.39 1640.87,1102.82L1636.1,1079.64C1636.82,1088.74 1637.26,1096.57 1637.4,1103.14C1637.54,1109.71 1637.62,1118.63 1637.62,1129.89C1637.62,1140 1635.7,1147.51 1631.88,1152.42C1628.05,1157.34 1622.88,1159.79 1616.39,1159.79Z" style="fill:white;fill-rule:nonzero;stroke:rgb(124,5,139);stroke-width:5px;"/>
            <path d="M1733.8,1159.79C1724.27,1159.79 1717.19,1154.05 1712.57,1142.57C1707.95,1131.09 1705.64,1116.9 1705.64,1100C1705.64,1094.08 1706.22,1086.64 1707.37,1077.69C1708.53,1068.73 1709.83,1061.73 1711.27,1056.67C1711.13,1056.82 1710.3,1058.59 1708.78,1061.98C1707.26,1065.37 1706.29,1067.07 1705.86,1067.07C1704.56,1067.07 1703.15,1066.6 1701.63,1065.66C1700.12,1064.72 1699.36,1063.75 1699.36,1062.74C1699.36,1055.66 1700.26,1047.93 1702.06,1039.56C1703.87,1031.18 1707.15,1023.85 1711.92,1017.57C1716.69,1011.29 1723.04,1008.15 1730.99,1008.15C1739.8,1008.15 1749.58,1012.05 1760.34,1019.85C1771.1,1027.64 1780.23,1037.75 1787.74,1050.17C1795.25,1062.59 1799.01,1075.38 1799.01,1088.52C1799.01,1099.64 1795.72,1110.72 1789.15,1121.77C1782.58,1132.82 1774.24,1141.92 1764.13,1149.07C1754.02,1156.22 1743.91,1159.79 1733.8,1159.79ZM1730.34,1073.79C1730.34,1074.51 1730.55,1075.09 1730.99,1075.52C1734.31,1077.69 1739.51,1082.16 1746.58,1088.95C1743.84,1092.13 1740.23,1098.19 1735.75,1107.15C1735.32,1107.73 1735.1,1108.45 1735.1,1109.32C1735.1,1110.33 1735.61,1110.83 1736.62,1110.83C1737.63,1110.83 1738.5,1110.18 1739.22,1108.88L1749.18,1091.55L1763.26,1105.63C1764.13,1106.5 1764.92,1106.93 1765.65,1106.93C1766.95,1106.93 1767.6,1106.35 1767.6,1105.2C1767.6,1104.33 1767.16,1103.54 1766.3,1102.82C1766.3,1102.82 1764.27,1100.79 1760.23,1096.75C1755.61,1092.13 1752.65,1089.31 1751.35,1088.3C1755.1,1081.51 1758.79,1075.81 1762.4,1071.19C1762.54,1070.75 1762.61,1070.25 1762.61,1069.67C1762.61,1068.66 1762.11,1068.15 1761.1,1068.15C1760.52,1068.15 1759.87,1068.66 1759.15,1069.67C1756.98,1072.56 1753.37,1077.9 1748.32,1085.7C1745.72,1082.81 1743.01,1080.18 1740.19,1077.8C1737.38,1075.41 1735.25,1073.79 1733.8,1072.92C1733.22,1072.49 1732.57,1072.27 1731.85,1072.27C1731.42,1072.27 1731.06,1072.45 1730.77,1072.81C1730.48,1073.17 1730.34,1073.5 1730.34,1073.79Z" style="fill:white;fill-rule:nonzero;stroke:rgb(124,5,139);stroke-width:5px;"/>
            <path d="M1810.49,1159.79C1803.27,1159.79 1798.11,1156.61 1795,1150.26C1791.89,1143.9 1790.34,1135.6 1790.34,1125.35C1790.34,1116.54 1791.14,1107.29 1792.73,1097.62C1794.31,1087.94 1796.41,1079.06 1799.01,1070.97C1812.01,1029.09 1826.74,1008.15 1843.2,1008.15C1851.43,1008.15 1858.18,1011.4 1863.46,1017.89C1868.73,1024.39 1873.46,1032.99 1877.65,1043.67C1886.89,1066.64 1891.51,1091.26 1891.51,1117.55C1891.51,1130.4 1889.38,1140.65 1885.12,1148.31C1880.86,1155.96 1875.26,1159.79 1868.33,1159.79C1862.41,1159.79 1857.5,1158.42 1853.6,1155.67C1849.7,1152.93 1847.75,1148.6 1847.75,1142.68C1847.75,1138.06 1848.18,1133.58 1849.05,1129.25C1854.54,1126.79 1859.45,1122.89 1863.78,1117.55C1859.88,1121.16 1856.24,1123.58 1852.84,1124.8C1849.45,1126.03 1845.44,1126.64 1840.82,1126.64C1837.79,1126.64 1834.03,1125.89 1829.55,1124.37C1825.08,1122.85 1821.47,1121.3 1818.72,1119.71C1820.6,1122.17 1822.77,1123.94 1825.22,1125.02C1827.68,1126.1 1829.7,1126.64 1831.29,1126.64C1831.29,1136.47 1830.2,1143.8 1828.04,1148.63C1825.87,1153.47 1823.34,1156.54 1820.45,1157.84C1817.57,1159.14 1814.24,1159.79 1810.49,1159.79ZM1823.27,1059.27C1823.27,1060.14 1823.63,1060.64 1824.35,1060.79C1828.98,1064.26 1833.89,1068.59 1839.09,1073.79C1834.32,1081.15 1830.78,1087.15 1828.47,1091.77C1828.18,1092.2 1828.04,1092.85 1828.04,1093.72C1828.04,1094.87 1828.47,1095.45 1829.34,1095.45C1830.35,1095.45 1831.29,1094.8 1832.15,1093.5L1841.9,1076.6L1855.55,1090.47C1856.27,1091.19 1856.99,1091.55 1857.72,1091.55C1858.15,1091.55 1858.55,1091.41 1858.91,1091.12C1859.27,1090.83 1859.45,1090.47 1859.45,1090.03C1859.45,1089.46 1859.16,1088.66 1858.58,1087.65L1843.85,1073.14C1848.18,1065.34 1851.79,1059.92 1854.68,1056.89C1854.83,1056.46 1854.9,1055.88 1854.9,1055.16C1854.9,1054.87 1854.76,1054.62 1854.47,1054.4C1854.18,1054.18 1853.82,1054.07 1853.38,1054.07C1852.81,1054.07 1852.15,1054.43 1851.43,1055.16C1850.13,1056.75 1846.6,1061.94 1840.82,1070.75C1838.22,1068.15 1835.55,1065.63 1832.8,1063.17C1830.06,1060.72 1828.04,1059.13 1826.74,1058.41C1826.3,1057.97 1825.65,1057.76 1824.79,1057.76C1824.35,1057.76 1823.99,1057.94 1823.7,1058.3C1823.41,1058.66 1823.27,1058.98 1823.27,1059.27Z" style="fill:white;fill-rule:nonzero;stroke:rgb(124,5,139);stroke-width:5px;"/>
        </g>
    </g>
</svg>
